<svg width="30" height="21" viewBox="0 0 30 21" fill="none" xmlns="http://www.w3.org/2000/svg">
<path fill-rule="evenodd" clip-rule="evenodd" d="M5.94148 7.18372L3.21378 13.22H6.47921L6.88403 12.2576H7.80936L8.21418 13.22H11.8085V12.4855L12.1288 13.22H13.988L14.3083 12.4699V13.22H21.7835L22.6925 12.2826L23.5436 13.22L27.383 13.2278L24.6467 10.2187L27.383 7.18372H23.6031L22.7183 8.10383L21.894 7.18372H13.762L13.0637 8.74174L12.349 7.18372H9.09037V7.89328L8.72787 7.18372H5.94148ZM17.1042 8.04085H21.3968L22.7097 9.45904L24.065 8.04085H25.3779L23.383 10.2178L25.3779 12.3697H24.0054L22.6925 10.9351L21.3303 12.3697H17.1042V8.04085ZM18.1642 9.7284V8.9377V8.93694H20.8427L22.0114 10.2015L20.7909 11.4729H18.1642V10.6097H20.506V9.7284H18.1642ZM6.57332 8.04085H8.16504L9.97432 12.1341V8.04085H11.718L13.1155 10.9757L14.4034 8.04085H16.1383V12.3723H15.0826L15.074 8.9782L13.5349 12.3723H12.5906L11.0429 8.9782V12.3723H8.87111L8.45938 11.4012H6.23496L5.82408 12.3714H4.66047L6.57332 8.04085ZM6.61478 10.5036L7.34764 8.7737L8.07964 10.5036H6.61478Z" fill="white"/>
</svg>
