<svg width="21" height="12" viewBox="0 0 21 12" fill="none" xmlns="http://www.w3.org/2000/svg">
<g clip-path="url(#clip0_1_130)">
<path d="M0.241989 0.268555H0.473427V6.41368H0.241989V0.268555ZM0.704865 0.268555H0.936304V6.41368H0.704865V0.268555ZM2.09453 0.268555H2.32597V6.41368H2.09453V0.268555ZM6.59946 0.268555H6.83089V6.41368H6.59946V0.268555ZM8.10551 0.268555H8.33695V6.41368H8.10551V0.268555ZM9.56592 0.268555H9.79736V6.41368H9.56592V0.268555ZM9.94228 0.268555H10.1737V6.41368H9.9426L9.94228 0.268555ZM10.3192 0.268555H10.5506V6.41368H10.3192V0.268555ZM10.7428 0.268555H10.9742V6.41368H10.7428L10.7428 0.268555ZM11.1663 0.268555H11.3977V6.41368H11.1663V0.268555ZM12.3437 0.268555H12.5751V6.41368H12.3433L12.3437 0.268555ZM15.2629 0.268555H15.4943V6.41368H15.2629V0.268555ZM18.308 0.268555H18.5393V6.41368H18.3079L18.308 0.268555ZM19.1409 0.268555H19.3723V6.41368H19.1409V0.268555ZM19.743 0.268555H19.9745V6.41368H19.743V0.268555ZM20.1135 0.268555H20.345V6.41368H20.1135V0.268555ZM3.62292 0.268555H3.85436V6.41368H3.62292V0.268555ZM1.30703 0.268555H1.7238V6.41368H1.30703V0.268555ZM4.05728 0.268555H4.47396V6.41368H4.05728V0.268555ZM5.98841 0.268555H6.4051V6.41368H5.98841V0.268555ZM6.97708 0.268555H7.39376V6.41368H6.97708V0.268555ZM8.53083 0.268555H8.94751V6.41368H8.53083V0.268555ZM12.9606 0.268555H13.6087V6.41368H12.9606V0.268555ZM13.8072 0.268555H14.3162V6.41368H13.8066L13.8072 0.268555ZM14.7005 0.268555H15.1172V6.41368H14.7005V0.268555ZM15.8818 0.268555H16.5766V6.41368H15.8818V0.268555ZM17.2424 0.268555H17.9372V6.41368H17.2424V0.268555ZM2.55764 0.268555H3.39101V6.41368H2.55764V0.268555ZM4.71768 0.268555H5.3658V6.41368H4.71768V0.268555Z" fill="white"/>
<path d="M0.541801 11.8699V8.35261H1.86166C2.08222 8.34409 2.30221 8.38037 2.50836 8.45925C2.66636 8.5268 2.79956 8.64164 2.88962 8.78799C2.97889 8.92647 3.02679 9.08754 3.02772 9.25229C3.02773 9.40252 2.98533 9.5497 2.90539 9.6769C2.81533 9.81701 2.68712 9.92848 2.53585 9.99819C2.72998 10.0481 2.90248 10.1601 3.02709 10.3171C3.1424 10.4704 3.20279 10.658 3.19855 10.8498C3.19992 11.009 3.16425 11.1663 3.09436 11.3093C3.03528 11.4376 2.94653 11.5499 2.83543 11.637C2.71979 11.72 2.58886 11.7793 2.4502 11.8113C2.26428 11.854 2.07385 11.8738 1.88313 11.8703L0.541801 11.8699ZM1.00769 9.83069H1.76832C1.91687 9.83648 2.06554 9.82276 2.21052 9.78988C2.31664 9.76299 2.41072 9.70141 2.47785 9.61494C2.54035 9.52504 2.57192 9.41725 2.56778 9.30783C2.56992 9.19922 2.54077 9.09228 2.48379 8.99978C2.42943 8.91196 2.34493 8.84698 2.2461 8.81699C2.07073 8.77665 1.89074 8.7601 1.71096 8.76778H1.00785L1.00769 9.83069ZM1.00769 11.455H1.88329C1.98921 11.4577 2.09518 11.4522 2.20022 11.4383C2.29523 11.4229 2.38644 11.3895 2.46898 11.34C2.5444 11.2913 2.6056 11.2235 2.64638 11.1435C2.69399 11.0526 2.718 10.9512 2.71618 10.8487C2.71945 10.7263 2.68423 10.606 2.61548 10.5046C2.5476 10.4074 2.44919 10.3357 2.33587 10.3008C2.16831 10.2555 1.99488 10.2356 1.82141 10.2418H1.00769V11.455ZM3.87876 10.1572C3.84925 9.65599 4.0181 9.16328 4.34885 8.78553C4.50474 8.62183 4.69356 8.49305 4.90286 8.40766C5.11216 8.32227 5.33718 8.28223 5.56309 8.29017C5.87158 8.28598 6.1753 8.36655 6.44115 8.52311C6.69956 8.67588 6.90696 8.90173 7.03721 9.17219C7.17761 9.46676 7.24774 9.78989 7.24211 10.1162C7.24802 10.4479 7.17422 10.7761 7.02691 11.0734C6.89316 11.3439 6.67964 11.5668 6.41516 11.7121C6.1537 11.8563 5.85967 11.9311 5.56111 11.9293C5.24871 11.9345 4.94117 11.8515 4.6737 11.69C4.41635 11.534 4.21021 11.3062 4.08065 11.0346C3.94705 10.7614 3.87797 10.4613 3.87876 10.1572ZM4.35883 10.1646C4.33886 10.5306 4.46223 10.8899 4.70278 11.1665C4.8113 11.2853 4.94405 11.3795 5.09206 11.4426C5.24008 11.5058 5.39992 11.5364 5.56079 11.5325C5.72263 11.5366 5.88343 11.5057 6.03219 11.4418C6.18094 11.378 6.31413 11.2827 6.42261 11.1625C6.66532 10.8691 6.78679 10.494 6.7622 10.1139C6.76863 9.85665 6.71986 9.60096 6.61918 9.36409C6.53045 9.15982 6.38259 8.9868 6.19465 8.8673C6.00683 8.74929 5.78893 8.68805 5.56713 8.69093C5.40996 8.68854 5.25387 8.71732 5.10788 8.77559C4.96189 8.83386 4.8289 8.92048 4.71657 9.03044C4.58367 9.18556 4.48348 9.36593 4.42201 9.56072C4.36053 9.75552 4.33905 9.96072 4.35883 10.164V10.1646ZM8.00536 11.8701V8.35261H8.47069V11.4546H10.2028V11.8699L8.00536 11.8701ZM10.9487 11.8701V8.35261H13.4921V8.76778H11.414V9.84535H13.3599V10.2581H11.414V11.455H13.5737V11.8703L10.9487 11.8701ZM15.2935 11.8701V8.76778H14.1341V8.35261H16.9221V8.76778H15.7585V11.8699L15.2935 11.8701ZM17.3513 10.1572C17.3222 9.65591 17.4915 9.16327 17.8226 8.78577C17.9785 8.62207 18.1673 8.49327 18.3766 8.40789C18.5858 8.3225 18.8109 8.28246 19.0368 8.29041C19.3452 8.2862 19.649 8.36678 19.9148 8.52335C20.1732 8.67609 20.3807 8.90195 20.5109 9.17243C20.6513 9.46698 20.7215 9.79013 20.7158 10.1164C20.7215 10.4481 20.6476 10.7764 20.5001 11.0736C20.3659 11.3446 20.1517 11.5677 19.8864 11.7129C19.6249 11.857 19.3309 11.9318 19.0323 11.93C18.7197 11.9352 18.412 11.8521 18.1444 11.6903C17.8876 11.5341 17.682 11.3062 17.5528 11.0348C17.4193 10.7616 17.3504 10.4613 17.3513 10.1572ZM17.8314 10.1646C17.8114 10.5306 17.9348 10.8899 18.1753 11.1665C18.2839 11.2853 18.4166 11.3795 18.5646 11.4426C18.7126 11.5058 18.8725 11.5364 19.0333 11.5325C19.1956 11.5371 19.357 11.5065 19.5063 11.4427C19.6556 11.3789 19.7893 11.2835 19.8982 11.163C20.1409 10.8695 20.2623 10.4944 20.2377 10.1144C20.2427 9.8568 20.1924 9.60109 20.0902 9.36456C20.0015 9.16031 19.8536 8.98729 19.6657 8.86778C19.478 8.74985 19.2602 8.68861 19.0386 8.6914C18.8814 8.68902 18.7253 8.71779 18.5793 8.77606C18.4333 8.83434 18.3003 8.92096 18.1879 9.03092C18.0553 9.18606 17.9554 9.36638 17.8941 9.56107C17.8328 9.75576 17.8115 9.96081 17.8314 10.1639V10.1646Z" fill="white"/>
</g>
<defs>
<clipPath id="clip0_1_130">
<rect width="20.474" height="11.6615" fill="white" transform="translate(0.242126 0.268677)"/>
</clipPath>
</defs>
</svg>
