<svg width="30" height="21" viewBox="0 0 30 21" fill="none" xmlns="http://www.w3.org/2000/svg">
<g clip-path="url(#clip0_1_128)">
<path d="M4.24199 4.26855H4.47343V10.4137H4.24199V4.26855ZM4.70487 4.26855H4.9363V10.4137H4.70487V4.26855ZM6.09453 4.26855H6.32597V10.4137H6.09453V4.26855ZM10.5995 4.26855H10.8309V10.4137H10.5995V4.26855ZM12.1055 4.26855H12.3369V10.4137H12.1055V4.26855ZM13.5659 4.26855H13.7974V10.4137H13.5659V4.26855ZM13.9423 4.26855H14.1737V10.4137H13.9426L13.9423 4.26855ZM14.3192 4.26855H14.5506V10.4137H14.3192V4.26855ZM14.7428 4.26855H14.9742V10.4137H14.7428L14.7428 4.26855ZM15.1663 4.26855H15.3977V10.4137H15.1663V4.26855ZM16.3437 4.26855H16.5751V10.4137H16.3433L16.3437 4.26855ZM19.2629 4.26855H19.4943V10.4137H19.2629V4.26855ZM22.308 4.26855H22.5393V10.4137H22.3079L22.308 4.26855ZM23.1409 4.26855H23.3723V10.4137H23.1409V4.26855ZM23.743 4.26855H23.9745V10.4137H23.743V4.26855ZM24.1135 4.26855H24.345V10.4137H24.1135V4.26855ZM7.62292 4.26855H7.85436V10.4137H7.62292V4.26855ZM5.30703 4.26855H5.7238V10.4137H5.30703V4.26855ZM8.05728 4.26855H8.47396V10.4137H8.05728V4.26855ZM9.98841 4.26855H10.4051V10.4137H9.98841V4.26855ZM10.9771 4.26855H11.3938V10.4137H10.9771V4.26855ZM12.5308 4.26855H12.9475V10.4137H12.5308V4.26855ZM16.9606 4.26855H17.6087V10.4137H16.9606V4.26855ZM17.8072 4.26855H18.3162V10.4137H17.8066L17.8072 4.26855ZM18.7005 4.26855H19.1172V10.4137H18.7005V4.26855ZM19.8818 4.26855H20.5766V10.4137H19.8818V4.26855ZM21.2424 4.26855H21.9372V10.4137H21.2424V4.26855ZM6.55764 4.26855H7.39101V10.4137H6.55764V4.26855ZM8.71768 4.26855H9.3658V10.4137H8.71768V4.26855Z" fill="white"/>
<path d="M4.5418 15.8699V12.3526H5.86166C6.08222 12.3441 6.30221 12.3804 6.50836 12.4593C6.66636 12.5268 6.79956 12.6416 6.88962 12.788C6.97889 12.9265 7.02679 13.0875 7.02772 13.2523C7.02773 13.4025 6.98533 13.5497 6.90539 13.6769C6.81533 13.817 6.68712 13.9285 6.53585 13.9982C6.72998 14.0481 6.90248 14.1601 7.02709 14.3171C7.1424 14.4704 7.20279 14.658 7.19855 14.8498C7.19992 15.009 7.16425 15.1663 7.09436 15.3093C7.03528 15.4376 6.94653 15.5499 6.83543 15.637C6.71979 15.72 6.58886 15.7793 6.4502 15.8113C6.26428 15.854 6.07385 15.8738 5.88313 15.8703L4.5418 15.8699ZM5.00769 13.8307H5.76832C5.91687 13.8365 6.06554 13.8228 6.21052 13.7899C6.31664 13.763 6.41072 13.7014 6.47785 13.6149C6.54035 13.525 6.57192 13.4172 6.56778 13.3078C6.56992 13.1992 6.54077 13.0923 6.48379 12.9998C6.42943 12.912 6.34493 12.847 6.2461 12.817C6.07073 12.7767 5.89074 12.7601 5.71096 12.7678H5.00785L5.00769 13.8307ZM5.00769 15.455H5.88329C5.98921 15.4577 6.09518 15.4522 6.20022 15.4383C6.29523 15.4229 6.38644 15.3895 6.46898 15.34C6.5444 15.2913 6.6056 15.2235 6.64638 15.1435C6.69399 15.0526 6.718 14.9512 6.71618 14.8487C6.71945 14.7263 6.68423 14.606 6.61548 14.5046C6.5476 14.4074 6.44919 14.3357 6.33587 14.3008C6.16831 14.2555 5.99488 14.2356 5.82141 14.2418H5.00769V15.455ZM7.87876 14.1572C7.84925 13.656 8.0181 13.1633 8.34885 12.7855C8.50474 12.6218 8.69356 12.493 8.90286 12.4077C9.11216 12.3223 9.33718 12.2822 9.56309 12.2902C9.87158 12.286 10.1753 12.3666 10.4411 12.5231C10.6996 12.6759 10.907 12.9017 11.0372 13.1722C11.1776 13.4668 11.2477 13.7899 11.2421 14.1162C11.248 14.4479 11.1742 14.7761 11.0269 15.0734C10.8932 15.3439 10.6796 15.5668 10.4152 15.7121C10.1537 15.8563 9.85967 15.9311 9.56111 15.9293C9.24871 15.9345 8.94117 15.8515 8.6737 15.69C8.41635 15.534 8.21021 15.3062 8.08065 15.0346C7.94705 14.7614 7.87797 14.4613 7.87876 14.1572ZM8.35883 14.1646C8.33886 14.5306 8.46223 14.8899 8.70278 15.1665C8.8113 15.2853 8.94405 15.3795 9.09206 15.4426C9.24008 15.5058 9.39992 15.5364 9.56079 15.5325C9.72263 15.5366 9.88343 15.5057 10.0322 15.4418C10.1809 15.378 10.3141 15.2827 10.4226 15.1625C10.6653 14.8691 10.7868 14.494 10.7622 14.1139C10.7686 13.8566 10.7199 13.601 10.6192 13.3641C10.5304 13.1598 10.3826 12.9868 10.1947 12.8673C10.0068 12.7493 9.78893 12.688 9.56713 12.6909C9.40996 12.6885 9.25387 12.7173 9.10788 12.7756C8.96189 12.8339 8.8289 12.9205 8.71657 13.0304C8.58367 13.1856 8.48348 13.3659 8.42201 13.5607C8.36053 13.7555 8.33905 13.9607 8.35883 14.164V14.1646ZM12.0054 15.8701V12.3526H12.4707V15.4546H14.2028V15.8699L12.0054 15.8701ZM14.9487 15.8701V12.3526H17.4921V12.7678H15.414V13.8453H17.3599V14.2581H15.414V15.455H17.5737V15.8703L14.9487 15.8701ZM19.2935 15.8701V12.7678H18.1341V12.3526H20.9221V12.7678H19.7585V15.8699L19.2935 15.8701ZM21.3513 14.1572C21.3222 13.6559 21.4915 13.1633 21.8226 12.7858C21.9785 12.6221 22.1673 12.4933 22.3766 12.4079C22.5858 12.3225 22.8109 12.2825 23.0368 12.2904C23.3452 12.2862 23.649 12.3668 23.9148 12.5234C24.1732 12.6761 24.3807 12.9019 24.5109 13.1724C24.6513 13.467 24.7215 13.7901 24.7158 14.1164C24.7215 14.4481 24.6476 14.7764 24.5001 15.0736C24.3659 15.3446 24.1517 15.5677 23.8864 15.7129C23.6249 15.857 23.3309 15.9318 23.0323 15.93C22.7197 15.9352 22.412 15.8521 22.1444 15.6903C21.8876 15.5341 21.682 15.3062 21.5528 15.0348C21.4193 14.7616 21.3504 14.4613 21.3513 14.1572ZM21.8314 14.1646C21.8114 14.5306 21.9348 14.8899 22.1753 15.1665C22.2839 15.2853 22.4166 15.3795 22.5646 15.4426C22.7126 15.5058 22.8725 15.5364 23.0333 15.5325C23.1956 15.5371 23.357 15.5065 23.5063 15.4427C23.6556 15.3789 23.7893 15.2835 23.8982 15.163C24.1409 14.8695 24.2623 14.4944 24.2377 14.1144C24.2427 13.8568 24.1924 13.6011 24.0902 13.3646C24.0015 13.1603 23.8536 12.9873 23.6657 12.8678C23.478 12.7499 23.2602 12.6886 23.0386 12.6914C22.8814 12.689 22.7253 12.7178 22.5793 12.7761C22.4333 12.8343 22.3003 12.921 22.1879 13.0309C22.0553 13.1861 21.9554 13.3664 21.8941 13.5611C21.8328 13.7558 21.8115 13.9608 21.8314 14.1639V14.1646Z" fill="white"/>
</g>
<defs>
<clipPath id="clip0_1_128">
<rect width="20.474" height="11.6615" fill="white" transform="translate(4.24213 4.26868)"/>
</clipPath>
</defs>
</svg>
