<svg width="7" height="10" viewBox="0 0 7 10" fill="none" xmlns="http://www.w3.org/2000/svg">
<path d="M1.11528 9.09456C0.812227 9.09456 0.558021 8.99188 0.35266 8.78652C0.147299 8.58115 0.0449755 8.32731 0.0456885 8.02497V4.8162C0.0456885 4.51315 0.148369 4.25894 0.35373 4.05358C0.559091 3.84822 0.81294 3.7459 1.11528 3.74661V2.67702C1.11528 2.08875 1.32492 1.58497 1.7442 1.16569C2.16347 0.746413 2.6669 0.537131 3.25446 0.537844C3.84273 0.537844 4.34651 0.747483 4.76578 1.16676C5.18506 1.58604 5.39435 2.08946 5.39363 2.67702V3.74661C5.69668 3.74661 5.95089 3.84929 6.15625 4.05465C6.36161 4.26001 6.46394 4.51386 6.46322 4.8162V8.02497C6.46322 8.32802 6.36054 8.58222 6.15518 8.78759C5.94982 8.99295 5.69597 9.09527 5.39363 9.09456H1.11528ZM2.18487 3.74661H4.32404V2.67702C4.32404 2.37397 4.22136 2.11977 4.016 1.9144C3.81064 1.70904 3.55679 1.60672 3.25446 1.60743C2.95141 1.60743 2.6972 1.71011 2.49184 1.91547C2.28648 2.12084 2.18415 2.37468 2.18487 2.67702V3.74661Z" fill="#FFFAEF"/>
</svg>
