<svg width="8" height="10" viewBox="0 0 8 10" fill="none" xmlns="http://www.w3.org/2000/svg">
<path d="M4.27304 9.09456C3.2664 8.84499 2.43531 8.27626 1.77976 7.38835C1.12421 6.50045 0.796586 5.51472 0.796875 4.43115V1.82135L4.27304 0.537842L7.74921 1.82135V4.43115C7.74921 5.515 7.42144 6.50088 6.76589 7.38878C6.11034 8.27668 5.27939 8.84528 4.27304 9.09456ZM3.404 6.52755H5.14209C5.2652 6.52755 5.36847 6.48647 5.4519 6.40433C5.53533 6.32219 5.5769 6.22065 5.57661 6.09971V4.8162C5.57661 4.69498 5.53489 4.5933 5.45146 4.51116C5.36804 4.42901 5.26491 4.38808 5.14209 4.38837V3.96053C5.14209 3.72522 5.05692 3.52371 4.88659 3.356C4.71625 3.18829 4.51174 3.10457 4.27304 3.10486C4.03406 3.10486 3.8294 3.18871 3.65907 3.35643C3.48873 3.52414 3.40371 3.72551 3.404 3.96053V4.38837C3.28089 4.38837 3.17762 4.42944 3.09419 4.51158C3.01076 4.59373 2.96919 4.69527 2.96948 4.8162V6.09971C2.96948 6.22093 3.01119 6.32261 3.09462 6.40476C3.17805 6.4869 3.28118 6.52783 3.404 6.52755ZM3.83852 4.38837V3.96053C3.83852 3.83931 3.88024 3.73763 3.96366 3.65548C4.04709 3.57334 4.15022 3.53241 4.27304 3.53269C4.39616 3.53269 4.49943 3.57377 4.58286 3.65591C4.66629 3.73806 4.70785 3.8396 4.70756 3.96053V4.38837H3.83852Z" fill="#FFFAEF"/>
</svg>
