<svg width="26" height="26" viewBox="0 0 26 26" fill="none" xmlns="http://www.w3.org/2000/svg">
<path d="M15.2148 0.0660354C14.688 0.233184 14.6171 0.29903 10.0484 4.86269L5.54044 9.36557H3.76766C2.33423 9.36557 1.93409 9.38076 1.69096 9.44154C0.921067 9.64415 0.353775 10.1709 0.0954548 10.9307C-0.00584731 11.2397 -0.00584731 11.3004 0.0042829 17.7635L0.0194782 24.2823L0.181562 24.6166C0.475338 25.2193 0.931197 25.6195 1.54407 25.8272C1.83785 25.9285 1.98474 25.9285 13.0621 25.9183L24.2813 25.9031L24.6359 25.7309C25.1019 25.503 25.502 25.1028 25.7299 24.6369L25.9022 24.2823L25.8971 17.723C25.8971 14.1166 25.892 11.0624 25.8819 10.9357C25.8768 10.8091 25.887 10.4647 25.9022 10.1659C25.9427 9.57324 25.887 9.30985 25.6388 8.85906C25.4818 8.57541 17.4992 0.567481 17.1497 0.344616C16.785 0.106556 16.3646 -0.004876 15.8581 0.0001891C15.6149 0.0001891 15.3262 0.0305797 15.2148 0.0660354ZM16.3342 1.71219C16.4405 1.79324 17.2611 2.58846 18.1525 3.48498L19.7734 5.11088L17.646 7.23822L15.5187 9.36557H11.6439H7.76909L11.5679 5.56167C13.6598 3.46979 15.4377 1.71219 15.5187 1.66154C15.7568 1.51466 16.0911 1.53492 16.3342 1.71219ZM20.8776 8.31203L19.824 9.36557H18.7857H17.7473L19.3175 7.79538L20.8877 6.2252L21.4043 6.74184L21.9261 7.26355L20.8776 8.31203ZM23.5621 8.89451L24.0534 9.39089L23.0556 9.3757L22.0577 9.3605L22.5339 8.88438C22.7973 8.621 23.0252 8.4032 23.0404 8.4032C23.0556 8.4032 23.2886 8.62606 23.5621 8.89451ZM23.9166 10.9915C24.1598 11.1181 24.3016 11.3055 24.3573 11.5638C24.3928 11.7411 24.408 13.7418 24.3978 17.8243C24.3826 23.7251 24.3826 23.8315 24.2813 23.9936C24.2256 24.0848 24.099 24.2114 24.0027 24.2722L23.8255 24.3836H12.9608H2.09617L1.91889 24.2722C1.82266 24.2114 1.69603 24.0848 1.64031 23.9936C1.53901 23.8264 1.53901 23.7353 1.53901 17.6369V11.4473L1.64538 11.3055C1.70109 11.2295 1.82772 11.113 1.91889 11.0472L2.08604 10.9357H12.9456C20.8776 10.9357 23.8356 10.9509 23.9166 10.9915Z" fill="#E1828D"/>
<path d="M3.85375 12.977C3.62076 13.0479 3.24087 13.4024 3.12944 13.6455C3.04333 13.8279 3.0332 14.0001 3.0332 15.2107C3.0332 16.7555 3.0484 16.8315 3.43841 17.1861C3.7879 17.5001 3.98038 17.5305 5.72784 17.5102C7.11061 17.495 7.27776 17.4849 7.43984 17.3988C7.68803 17.2671 7.93622 17.024 8.06285 16.7859C8.16922 16.5934 8.17428 16.5225 8.17428 15.2157V13.8482L8.0274 13.5797C7.94635 13.4379 7.80453 13.2606 7.71336 13.1897C7.36893 12.9263 7.24737 12.9111 5.57082 12.9162C4.63884 12.9212 3.95505 12.9415 3.85375 12.977ZM6.62943 15.2157V15.9502H5.59108H4.55273V15.2157V14.4813H5.59108H6.62943V15.2157Z" fill="#E1828D"/>
<path d="M2.98254 21.3445V22.1296H4.75533H6.52812V21.3445V20.5595H4.75533H2.98254V21.3445Z" fill="#E1828D"/>
<path d="M8.45288 21.3445V22.1296H10.2257H11.9985V21.3445V20.5595H10.2257H8.45288V21.3445Z" fill="#E1828D"/>
<path d="M13.9232 21.3445V22.1296H15.696H17.4688V21.3445V20.5595H15.696H13.9232V21.3445Z" fill="#E1828D"/>
<path d="M19.3935 21.3445V22.1296H21.1663H22.9391V21.3445V20.5595H21.1663H19.3935V21.3445Z" fill="#E1828D"/>
</svg>
