<svg width="428" height="375" viewBox="0 0 428 375" fill="none" xmlns="http://www.w3.org/2000/svg">
<path d="M112.368 0.284912C111.502 0.512634 109.862 1.46921 108.496 2.56238C108.132 2.83566 106.446 4.20215 104.761 5.52307C103.121 6.84396 100.024 9.25806 97.9287 10.8978C95.879 12.5376 93.8293 14.0863 93.4649 14.4051C92.4628 15.225 87.498 19.1422 85.4938 20.6909C84.5373 21.4196 82.4876 23.0594 80.8934 24.3348C79.3447 25.5646 76.3385 27.9331 74.2432 29.5729C69.9161 32.9435 70.0983 32.8069 66.0444 36.0409C64.4046 37.3618 61.3073 39.7759 59.2121 41.4156C57.1623 43.0554 55.1126 44.6041 54.7483 44.9229C53.7462 45.7428 48.7813 49.66 46.7772 51.2087C45.8207 51.9374 43.771 53.5772 42.1767 54.8526C40.6281 56.0824 37.6218 58.451 35.5266 60.0907C33.4769 61.7305 31.4272 63.2791 31.0628 63.598C30.6984 63.9168 27.6922 66.2854 24.4126 68.8361C17.4892 74.302 15.9405 75.5318 12.3877 78.3103C10.9757 79.449 9.01709 80.9521 8.06057 81.7265C3.46012 85.3704 1.86591 87.5567 0.727183 91.9294C-0.775933 97.9419 1.45597 103.909 6.83074 108.008C8.24276 109.101 9.83698 110.331 10.338 110.741C11.249 111.516 19.8122 118.302 23.0917 120.899C24.0483 121.627 26.5079 123.586 28.5576 125.226C30.6073 126.865 32.9758 128.687 33.7957 129.325C34.6156 129.963 37.5763 132.286 40.4003 134.563C43.1788 136.795 46.2761 139.255 47.2327 140.029C48.1892 140.758 50.6488 142.717 52.6985 144.356C54.7483 145.996 57.1168 147.818 57.9367 148.456C60.8518 150.642 62.0361 152.236 62.0361 153.922C61.9905 156.518 60.9429 157.793 55.2037 162.12C54.3839 162.758 52.0153 164.58 49.9656 166.22C47.9159 167.86 45.4563 169.773 44.4997 170.547C43.5432 171.276 40.4459 173.735 37.6674 176.013C34.8434 178.245 31.8827 180.613 31.0628 181.251C30.2429 181.889 27.8744 183.711 25.8247 185.35C23.775 186.99 21.3153 188.903 20.3588 189.678C19.4023 190.406 16.9426 192.365 14.8929 194.005C12.8432 195.644 10.3836 197.557 9.38149 198.332C8.42496 199.061 6.32971 200.974 4.82659 202.522C1.45597 205.847 0.317242 208.626 0.362791 213.135C0.453889 218.647 2.82243 222.701 8.47051 227.028C9.47258 227.802 11.4312 229.305 12.8432 230.444C14.2552 231.583 16.1227 232.995 16.9426 233.632C17.7625 234.27 20.2221 236.183 22.4085 237.959C24.5948 239.69 27.1456 241.74 28.1021 242.514C29.0586 243.243 31.5183 245.202 33.568 246.841C35.6177 248.481 38.0773 250.394 39.0339 251.169C39.9904 251.897 41.949 253.446 43.361 254.585C44.8186 255.724 46.7316 257.227 47.6882 258.001C49.4646 259.367 56.6613 265.061 57.9367 266.109C58.3011 266.428 60.8518 268.386 63.5392 270.527C66.2721 272.668 70.2804 275.811 72.4668 277.587C74.6532 279.318 77.2494 281.368 78.206 282.142C79.1625 282.871 81.6221 284.829 83.6718 286.469C85.7215 288.109 88.1812 290.022 89.1377 290.796C90.0942 291.525 92.0529 293.074 93.4649 294.212C94.8769 295.351 96.7444 296.763 97.5643 297.401C98.3842 298.038 100.844 299.952 103.03 301.728C105.217 303.459 107.767 305.509 108.724 306.283C109.68 307.012 112.14 308.97 114.19 310.61C116.239 312.25 118.699 314.163 119.656 314.937C120.612 315.666 122.571 317.215 123.983 318.353C125.44 319.492 127.353 320.995 128.31 321.77C130.086 323.136 137.283 328.83 138.558 329.877C138.923 330.196 141.473 332.155 144.161 334.295C146.894 336.436 150.902 339.579 153.088 341.356C155.275 343.086 157.871 345.136 158.828 345.91C159.784 346.639 162.244 348.598 164.294 350.238C166.343 351.877 168.803 353.79 169.759 354.565C170.716 355.294 172.675 356.842 174.087 357.981C175.499 359.12 177.366 360.532 178.186 361.169C179.006 361.807 181.557 363.811 183.834 365.633C186.111 367.455 188.298 369.232 188.662 369.505C189.072 369.824 190.302 370.826 191.486 371.737C192.625 372.693 194.128 373.65 194.766 373.923C196.36 374.515 198.136 373.786 198.683 372.283C199.002 371.509 199.093 320.403 199.047 222.746L198.911 74.4386L197.59 70.7947C195.358 64.6001 192.397 60.6829 186.613 56.2191C185.656 55.4447 182.149 52.7118 178.869 50.0699C175.544 47.4281 172.265 44.8318 171.49 44.2397C170.761 43.6931 169.532 42.7366 168.803 42.1444C166.662 40.368 155.229 31.2582 153.681 30.1195C152.906 29.5274 148.944 26.3389 144.799 23.0594C140.699 19.7343 136.691 16.5459 135.871 15.9082C135.051 15.3161 131.544 12.5376 128.128 9.75912C124.666 7.02618 121.204 4.24768 120.339 3.60999C119.519 2.97232 118.426 2.10687 117.925 1.69693C117.15 0.96817 114.144 -0.125031 113.506 0.0115967C113.37 0.0571594 112.869 0.193817 112.368 0.284912ZM83.7174 51.8463C84.4917 52.0741 85.6304 52.6662 86.2226 53.1673C87.2247 53.9872 94.6491 59.9541 99.1585 63.5069C100.115 64.2357 103.121 66.6042 105.763 68.745C108.45 70.8858 111.32 73.1177 112.14 73.7554C112.96 74.3931 115.921 76.7161 118.745 78.9935C121.523 81.2254 124.438 83.5484 125.213 84.1406C125.941 84.6872 127.171 85.6437 127.9 86.2358C129.221 87.3745 137.921 94.2524 141.064 96.7576C142.02 97.4864 145.026 99.8549 147.668 101.996C150.356 104.137 153.316 106.46 154.273 107.234C155.229 107.963 158.236 110.331 160.877 112.472C163.565 114.613 166.434 116.845 167.254 117.482C172.265 121.263 177.138 125.453 177.822 126.501C178.596 127.64 178.641 132.149 178.641 202.112V276.539L177.093 278.088C175.453 279.728 173.54 280.092 171.672 279.09C170.807 278.635 165.569 274.809 164.977 274.171C164.703 273.898 158.463 268.978 156.322 267.339C155.503 266.701 153.043 264.742 150.857 263.011C148.67 261.235 146.119 259.185 145.163 258.456C144.206 257.682 141.747 255.769 139.697 254.129C137.647 252.49 135.188 250.531 134.231 249.802C133.275 249.028 131.316 247.525 129.904 246.386C128.446 245.247 126.533 243.699 125.577 242.97C123.8 241.603 116.604 235.91 115.328 234.862C114.964 234.543 112.413 232.585 109.726 230.444C106.993 228.303 102.985 225.115 100.798 223.384C98.6119 221.607 96.0156 219.558 95.0591 218.829C94.1026 218.055 91.6429 216.141 89.5932 214.502C87.5435 212.862 85.0839 210.903 84.1273 210.175C83.1708 209.4 81.2122 207.897 79.8002 206.758C78.3882 205.62 76.5207 204.208 75.7008 203.57C74.8809 202.932 72.3302 200.928 70.0527 199.106C67.7753 197.284 65.5889 195.508 65.2245 195.234C64.8601 194.916 63.7669 194.096 62.8104 193.367C60.7607 191.818 59.7586 190.042 59.7586 188.038C59.7586 186.899 60.2141 186.125 61.945 184.485C63.1293 183.346 64.8146 181.889 65.6345 181.251C66.4999 180.613 67.502 179.793 67.9575 179.429C68.4129 179.065 69.415 178.245 70.2349 177.607C71.0548 176.969 72.0569 176.149 72.5123 175.785C72.9678 175.421 73.9699 174.601 74.7898 173.963C75.6097 173.325 76.6573 172.506 77.0672 172.141C77.5227 171.777 78.3882 171.048 78.9348 170.592C79.5269 170.091 80.9389 169.636 82.0776 169.499C84.1273 169.317 84.264 169.408 88.9555 173.098C91.6429 175.193 94.4669 177.425 95.2868 178.063C96.1067 178.7 99.0674 181.023 101.891 183.301C104.67 185.533 107.767 187.992 108.724 188.767C109.68 189.495 112.14 191.454 114.19 193.094C116.239 194.733 118.608 196.555 119.428 197.193C120.248 197.831 121.159 198.56 121.432 198.787C121.705 199.061 124.074 200.928 126.716 203.023C129.357 205.119 131.817 207.032 132.181 207.351C132.591 207.669 134.322 209.036 136.053 210.448C140.881 214.32 142.384 214.821 144.115 213.272C144.89 212.589 144.935 210.994 144.935 181.297C144.935 151.052 144.89 149.913 143.979 146.634C142.02 139.528 138.695 135.52 128.219 127.594C127.49 127.048 126.26 126.091 125.531 125.499C124.21 124.36 115.511 117.482 112.368 114.977C111.411 114.203 108.405 111.88 105.763 109.739C103.076 107.598 100.115 105.23 99.1585 104.501C98.202 103.727 95.1957 101.404 92.5539 99.2628C89.8665 97.122 86.9969 94.8901 86.177 94.2524C85.3572 93.6147 82.3965 91.2462 79.5724 89.0143C76.794 86.7368 73.8333 84.4138 72.9678 83.7762C68.003 80.0412 60.8063 73.9832 60.3508 73.1177C59.2576 71.2502 60.0319 67.6063 61.7628 66.6042C62.446 66.1943 63.6303 65.2833 70.9181 59.4075C78.206 53.5772 78.7981 53.1217 80.3923 52.2108C82.0776 51.2998 81.8954 51.2998 83.7174 51.8463Z" fill="#D58992"/>
<path d="M311.553 0.60379C310.642 0.922607 309.595 1.46924 309.23 1.83362C308.911 2.198 307.909 2.97235 307.089 3.61002C306.27 4.24771 302.899 6.88956 299.574 9.5314C296.294 12.1732 292.787 14.9062 291.831 15.6805C290.874 16.4093 286.729 19.7344 282.63 23.0594C278.485 26.339 274.522 29.5274 273.748 30.1195C272.199 31.2582 260.766 40.368 258.625 42.1444C257.897 42.7366 256.667 43.6931 255.938 44.2397C255.164 44.8318 251.884 47.4281 248.559 50.07C245.28 52.7118 241.772 55.4447 240.816 56.2191C235.031 60.6829 232.07 64.6001 229.838 70.7947L228.518 74.4387L228.381 222.746C228.335 320.403 228.426 371.509 228.745 372.283C229.292 373.786 231.068 374.515 232.662 373.923C233.3 373.65 234.803 372.693 235.942 371.737C237.126 370.826 238.356 369.824 238.766 369.505C239.13 369.232 241.317 367.455 243.594 365.633C245.872 363.811 248.422 361.807 249.242 361.169C250.062 360.532 251.93 359.12 253.342 357.981C254.754 356.842 256.712 355.294 257.669 354.565C258.625 353.79 261.085 351.877 263.135 350.238C265.184 348.598 267.644 346.639 268.601 345.91C269.557 345.136 272.153 343.086 274.34 341.356C276.526 339.579 280.534 336.436 283.267 334.295C285.955 332.155 288.506 330.196 288.87 329.877C290.145 328.83 297.342 323.136 299.118 321.77C300.075 320.995 301.988 319.492 303.446 318.353C304.858 317.215 306.816 315.666 307.773 314.937C308.729 314.163 311.189 312.25 313.239 310.61C315.288 308.97 317.748 307.012 318.704 306.283C319.661 305.509 322.212 303.459 324.398 301.728C326.584 299.952 329.044 298.039 329.864 297.401C330.684 296.763 332.551 295.351 333.963 294.212C335.375 293.074 337.334 291.525 338.291 290.796C339.247 290.022 341.707 288.109 343.756 286.469C345.806 284.829 348.266 282.871 349.222 282.142C350.179 281.368 352.775 279.318 354.961 277.587C357.148 275.811 361.156 272.668 363.889 270.527C366.576 268.386 369.127 266.428 369.492 266.109C370.767 265.061 377.964 259.367 379.74 258.001C380.697 257.227 382.61 255.724 384.067 254.585C385.479 253.446 387.438 251.897 388.394 251.169C389.351 250.394 391.811 248.481 393.86 246.841C395.91 245.202 398.37 243.243 399.326 242.514C400.283 241.74 402.833 239.69 405.02 237.959C407.206 236.183 409.666 234.27 410.486 233.632C411.306 232.995 413.173 231.583 414.585 230.444C415.997 229.305 417.956 227.802 418.958 227.028C424.606 222.701 426.974 218.647 427.065 213.135C427.111 208.626 425.972 205.847 422.602 202.522C421.099 200.974 419.003 199.061 418.047 198.332C417.045 197.558 414.585 195.644 412.535 194.005C410.486 192.365 408.026 190.406 407.069 189.678C406.113 188.903 403.653 186.99 401.604 185.35C399.554 183.711 397.185 181.889 396.365 181.251C395.546 180.613 392.585 178.245 389.761 176.013C386.982 173.735 383.885 171.276 382.929 170.547C381.972 169.773 379.512 167.86 377.463 166.22C375.413 164.58 373.044 162.758 372.225 162.12C366.485 157.793 365.438 156.518 365.392 153.922C365.392 151.735 366.212 150.961 380.196 140.029C381.152 139.255 384.249 136.795 387.028 134.563C389.852 132.286 392.813 129.963 393.633 129.325C394.452 128.687 396.821 126.866 398.871 125.226C400.92 123.586 403.38 121.627 404.337 120.899C407.616 118.302 416.179 111.516 417.09 110.741C417.591 110.331 419.185 109.101 420.597 108.008C425.972 103.909 428.204 97.9419 426.701 91.9295C425.562 87.5568 423.968 85.3704 419.368 81.7265C418.411 80.9522 416.453 79.449 415.041 78.3103C411.488 75.5318 409.939 74.302 403.016 68.8362C399.736 66.2854 396.73 63.9168 396.365 63.598C396.001 63.2792 393.951 61.7305 391.902 60.0907C389.806 58.451 386.8 56.0824 385.252 54.8526C383.657 53.5772 381.608 51.9375 380.651 51.2087C378.647 49.66 373.682 45.7428 372.68 44.9229C372.316 44.6041 370.266 43.0554 368.216 41.4157C366.121 39.7759 363.024 37.3618 361.384 36.0409C357.33 32.8069 357.512 32.9436 353.185 29.5729C351.09 27.9332 348.084 25.5646 346.535 24.3348C344.941 23.0594 342.891 21.4197 341.934 20.6909C339.93 19.1422 334.965 15.225 333.963 14.4051C333.599 14.0863 331.549 12.5376 329.5 10.8979C327.404 9.25809 324.307 6.84399 322.667 5.5231C318.249 2.01581 318.34 2.06137 317.11 1.28705C315.379 0.148315 313.421 -0.0794678 311.553 0.60379ZM348.266 52.9395C349.04 53.4861 349.997 54.1694 350.361 54.4882C351.226 55.217 361.065 63.0514 363.342 64.8734C364.299 65.6022 365.347 66.4221 365.665 66.6042C367.396 67.6063 368.171 71.2502 367.077 73.1177C366.622 73.9832 359.425 80.0412 354.46 83.7762C353.595 84.4139 350.634 86.7369 347.856 89.0143C345.032 91.2462 342.071 93.6148 341.251 94.2525C340.431 94.8901 337.562 97.122 334.874 99.2628C332.233 101.404 329.226 103.727 328.27 104.501C327.313 105.23 324.353 107.598 321.665 109.739C319.023 111.88 316.017 114.203 315.061 114.977C311.918 117.482 303.218 124.36 301.897 125.499C301.168 126.091 299.938 127.048 299.21 127.594C288.733 135.52 285.408 139.528 283.45 146.634C282.539 149.913 282.493 151.052 282.493 181.205C282.493 209.582 282.539 212.452 283.267 213.226C284.087 214.183 285.727 214.274 287.185 213.5C287.731 213.226 289.599 211.86 291.375 210.448C293.106 209.036 294.837 207.669 295.247 207.351C295.611 207.032 298.071 205.119 300.713 203.023C303.354 200.928 305.723 199.061 305.996 198.787C306.27 198.56 307.181 197.831 308 197.193C308.82 196.555 311.189 194.733 313.239 193.094C315.288 191.454 317.748 189.495 318.704 188.767C319.661 187.992 322.758 185.533 325.537 183.301C328.361 181.023 331.322 178.7 332.141 178.063C332.961 177.425 335.785 175.193 338.473 173.098C343.164 169.408 343.301 169.317 345.351 169.499C346.489 169.636 347.901 170.091 348.493 170.593C349.04 171.048 349.906 171.777 350.361 172.141C350.771 172.506 351.819 173.325 352.638 173.963C353.458 174.601 354.46 175.421 354.916 175.785C355.371 176.149 356.373 176.969 357.193 177.607C358.013 178.245 359.015 179.065 359.471 179.429C359.926 179.793 360.928 180.613 361.794 181.251C362.614 181.889 364.299 183.346 365.483 184.485C367.214 186.125 367.67 186.899 367.67 188.038C367.67 190.042 366.668 191.818 364.618 193.367C363.661 194.096 362.568 194.916 362.204 195.235C361.839 195.508 359.653 197.284 357.376 199.106C355.098 200.928 352.547 202.932 351.727 203.57C350.908 204.208 349.04 205.62 347.628 206.758C346.216 207.897 344.257 209.4 343.301 210.175C342.344 210.903 339.885 212.862 337.835 214.502C335.785 216.141 333.326 218.055 332.369 218.829C331.413 219.558 328.816 221.607 326.63 223.384C324.444 225.115 320.435 228.303 317.702 230.444C315.015 232.585 312.464 234.543 312.1 234.862C310.824 235.91 303.628 241.603 301.851 242.97C300.895 243.699 298.982 245.247 297.524 246.386C296.112 247.525 294.154 249.028 293.197 249.802C292.241 250.531 289.781 252.49 287.731 254.129C285.681 255.769 283.222 257.682 282.265 258.456C281.309 259.185 278.758 261.235 276.572 263.011C274.385 264.742 271.926 266.701 271.106 267.339C268.965 268.978 262.725 273.898 262.451 274.171C261.859 274.809 256.621 278.635 255.756 279.09C253.888 280.092 251.975 279.728 250.335 278.088L248.787 276.539V202.112C248.787 132.149 248.832 127.64 249.607 126.501C250.29 125.454 255.164 121.263 260.174 117.482C260.994 116.845 263.864 114.613 266.551 112.472C269.193 110.331 272.199 107.963 273.156 107.234C274.112 106.46 277.073 104.137 279.76 101.996C282.402 99.855 285.408 97.4865 286.365 96.7577C289.508 94.2525 298.207 87.3746 299.528 86.2358C300.257 85.6437 301.487 84.6872 302.216 84.1406C302.99 83.5485 305.905 81.2255 308.684 78.9936C311.508 76.7161 314.468 74.3931 315.288 73.7554C316.108 73.1177 318.978 70.8858 321.665 68.7451C324.307 66.6042 327.313 64.2357 328.27 63.5069C332.825 59.9085 340.249 53.9872 341.206 53.1673C343.438 51.2542 345.806 51.1631 348.266 52.9395Z" fill="#D58992"/>
</svg>
