<svg width="30" height="21" viewBox="0 0 30 21" fill="none" xmlns="http://www.w3.org/2000/svg">
<path fill-rule="evenodd" clip-rule="evenodd" d="M13.8125 13.2295V10.7131H15.1113C15.6435 10.7131 16.0927 10.5348 16.4588 10.1831L16.5467 10.0939C17.2156 9.36576 17.1717 8.23142 16.4588 7.55775C16.1024 7.2011 15.6142 7.00791 15.1113 7.01782H13.0265V13.2295H13.8125ZM13.8126 9.95023V7.78062H15.1311C15.4143 7.78062 15.6829 7.88959 15.8831 8.08773C16.308 8.50382 16.3177 9.19731 15.9076 9.62826C15.7073 9.84126 15.4241 9.96014 15.1311 9.95023H13.8126ZM20.2135 9.31125C19.8766 8.99919 19.4176 8.84068 18.8366 8.84068C18.0896 8.84068 17.5281 9.11807 17.1571 9.6679L17.8504 10.1088C18.1043 9.7323 18.4509 9.54407 18.8903 9.54407C19.1686 9.54407 19.4372 9.64809 19.6471 9.83632C19.8522 10.0146 19.9694 10.2722 19.9694 10.5447V10.7279C19.6667 10.5595 19.2858 10.4704 18.8171 10.4704C18.2703 10.4704 17.8308 10.5992 17.5037 10.8617C17.1766 11.1242 17.0106 11.471 17.0106 11.9118C17.0008 12.313 17.1717 12.6945 17.4744 12.952C17.782 13.2294 18.1726 13.3681 18.6316 13.3681C19.1735 13.3681 19.6032 13.1254 19.9303 12.64H19.9645V13.2294H20.7164V10.6091C20.7164 10.0592 20.5504 9.62332 20.2135 9.31125ZM18.08 12.4468C17.9188 12.3279 17.8212 12.1347 17.8212 11.9266C17.8212 11.6938 17.9286 11.5006 18.1386 11.3471C18.3534 11.1935 18.622 11.1143 18.9394 11.1143C19.3789 11.1093 19.7208 11.2084 19.9649 11.4065C19.9649 11.7434 19.8331 12.0356 19.5743 12.2833C19.3399 12.5211 19.0225 12.6548 18.6904 12.6548C18.4706 12.6598 18.2558 12.5855 18.08 12.4468ZM22.4057 15.0969L25.0325 8.97936H24.1781L22.9623 12.0307H22.9477L21.7027 8.97936H20.8482L22.5717 12.957L21.5953 15.0969H22.4057Z" fill="white"/>
<path d="M11.0987 10.1682C11.0987 9.92543 11.0792 9.68271 11.0401 9.44495H7.72491V10.8171H9.6242C9.54608 11.2579 9.29219 11.6542 8.92112 11.9019V12.7935H10.0539C10.7179 12.1743 11.0987 11.2579 11.0987 10.1682Z" fill="white"/>
<path d="M7.72507 13.6554C8.67227 13.6554 9.473 13.3384 10.054 12.7935L8.92127 11.9018C8.60391 12.1198 8.19867 12.2436 7.72507 12.2436C6.80716 12.2436 6.03084 11.6145 5.75254 10.7725H4.58563V11.6938C5.18129 12.8975 6.39703 13.6554 7.72507 13.6554Z" fill="white"/>
<path d="M5.75266 10.7726C5.60617 10.3317 5.60617 9.85121 5.75266 9.4054V8.48901H4.58556C4.08259 9.49457 4.08259 10.6834 4.58556 11.6889L5.75266 10.7726Z" fill="white"/>
<path d="M7.72507 7.93417C8.22796 7.92426 8.71133 8.11745 9.07263 8.46914L10.0784 7.44873C9.43882 6.84441 8.59903 6.51253 7.72507 6.52243C6.39703 6.52243 5.18129 7.28526 4.58563 8.48895L5.75254 9.4103C6.03084 8.56326 6.80716 7.93417 7.72507 7.93417Z" fill="white"/>
</svg>
