<svg width="10" height="13" viewBox="0 0 10 13" fill="none" xmlns="http://www.w3.org/2000/svg">
<path d="M5.01963 7.5636C4.80144 7.56518 4.59008 7.63653 4.41927 7.76627C4.24846 7.89602 4.12803 8.07668 4.0772 8.27945C4.02636 8.48222 4.04805 8.69542 4.1388 8.88504C4.22955 9.07466 4.38413 9.22978 4.57789 9.32566V10.4332H5.38843V9.36052C5.59768 9.27857 5.7707 9.12978 5.87794 8.93952C5.98519 8.74927 6.02002 8.52935 5.9765 8.31729C5.93298 8.10523 5.8138 7.91418 5.63929 7.77672C5.46479 7.63927 5.24578 7.56395 5.01963 7.5636Z" fill="white"/>
<path d="M8.22528 5.39872V3.74122C8.24269 2.90158 7.91133 2.08954 7.30371 1.48278C6.6961 0.876033 5.8617 0.52398 4.98312 0.503662C4.10453 0.52398 3.27014 0.876033 2.66252 1.48278C2.0549 2.08954 1.72355 2.90158 1.74095 3.74122V5.39872H0.525139V11.9823C0.525139 12.1877 0.610535 12.3847 0.762541 12.5299C0.914547 12.6752 1.12071 12.7568 1.33568 12.7568H8.63055C8.84552 12.7568 9.05169 12.6752 9.20369 12.5299C9.3557 12.3847 9.44109 12.1877 9.44109 11.9823V5.39872H8.22528ZM2.55149 3.74122C2.53402 3.10696 2.77997 2.49189 3.23559 2.03038C3.69122 1.56887 4.31949 1.29844 4.98312 1.2782C5.64675 1.29844 6.27501 1.56887 6.73064 2.03038C7.18627 2.49189 7.43221 3.10696 7.41474 3.74122V5.39872H2.55149V3.74122ZM1.33568 11.9823V6.17325H8.63055V11.9823H1.33568Z" fill="white"/>
</svg>
