<svg width="129" height="143" viewBox="0 0 129 143" fill="none" xmlns="http://www.w3.org/2000/svg">
<path d="M64.875 142.449C61.7041 142.449 58.7064 141.728 56.4367 140.417L9.28412 113.194C7.01197 111.884 4.89045 109.647 3.30372 106.903C1.71699 104.159 0.84584 101.198 0.84584 98.5773V44.1313C0.84584 41.5102 1.7195 38.5526 3.30372 35.806C4.88794 33.0593 7.01197 30.8273 9.28412 29.5293L56.4267 2.29626C58.6863 0.985701 61.6991 0.265137 64.865 0.265137C68.031 0.265137 71.0312 0.985701 73.3008 2.29626L120.453 29.5218C122.726 30.8323 124.847 33.0668 126.434 35.7984C128.021 38.53 128.892 41.5026 128.892 44.1238V98.5698C128.892 101.191 128.021 104.148 126.434 106.895C124.847 109.642 122.726 111.876 120.453 113.187L73.3008 140.41C71.0412 141.728 68.046 142.449 64.875 142.449ZM64.875 3.35826C62.2765 3.35826 59.7658 3.94827 57.9858 4.97764L10.8332 32.1982C7.09732 34.3548 3.94144 39.818 3.94144 44.1313V98.5773C3.94144 102.891 7.09732 108.354 10.8332 110.51L57.9858 137.734C59.7658 138.763 62.2765 139.353 64.875 139.353C67.4735 139.353 69.9842 138.763 71.7643 137.734L118.917 110.505C122.65 108.349 125.806 102.886 125.806 98.5723V44.1313C125.806 39.818 122.65 34.3548 118.917 32.1982L71.7643 4.97513C69.9842 3.94576 67.4735 3.35575 64.875 3.35575V3.35826Z" fill="url(#paint0_linear_1_220)"/>
<path d="M117.102 49.1479V93.5613C117.102 95.7004 116.391 98.1106 115.093 100.34C113.795 102.57 112.068 104.4 110.215 105.472L71.752 127.676C69.8991 128.746 67.4562 129.336 64.8702 129.336C62.2843 129.336 59.8489 128.746 57.986 127.676L19.5203 105.484C17.6674 104.412 15.9351 102.59 14.6446 100.353C13.3542 98.1157 12.6361 95.7004 12.6361 93.5739V49.1604C12.6361 47.0213 13.3466 44.6111 14.6446 42.3817C15.9426 40.1522 17.6574 38.3194 19.5203 37.2499L57.9835 15.0456C59.8364 13.9761 62.2793 13.3861 64.8678 13.3861C67.4563 13.3861 69.8891 13.9761 71.7495 15.0456L110.213 37.2499C112.066 38.3194 113.798 40.1447 115.091 42.3817C116.384 44.6187 117.102 47.0088 117.102 49.1479Z" fill="url(#paint1_linear_1_220)"/>
<path d="M64.8751 126.546C62.3921 126.546 60.0472 125.982 58.2672 124.955L21.7597 103.865C19.9796 102.838 18.3151 101.088 17.0773 98.9418C15.8396 96.7952 15.1517 94.4779 15.1517 92.4141V50.2602C15.1517 48.204 15.8371 45.8892 17.0773 43.7325C18.3176 41.5759 19.9796 39.836 21.7597 38.8092L58.2672 17.7197C60.0472 16.6903 62.3921 16.1254 64.8751 16.1254C67.3582 16.1254 69.7006 16.6903 71.4807 17.7197L107.988 38.8092C109.768 39.836 111.433 41.5859 112.671 43.7325C113.908 45.8792 114.596 48.1965 114.596 50.2602V92.4292C114.596 94.4854 113.911 96.8002 112.671 98.9569C111.43 101.114 109.768 102.853 107.988 103.88L71.4807 124.97C69.7006 125.982 67.3532 126.546 64.8751 126.546ZM64.8751 16.4568C62.4448 16.4568 60.1501 17.0091 58.4152 18.0109L21.9078 39.1004C20.1705 40.1046 18.5461 41.8119 17.3309 43.9158C16.1158 46.0197 15.4479 48.2844 15.4479 50.2879V92.4292C15.4479 94.4377 16.1183 96.6973 17.3309 98.8012C18.5436 100.905 20.1705 102.615 21.9078 103.617L58.4152 124.706C60.1501 125.71 62.4323 126.26 64.8751 126.26C67.318 126.26 69.5977 125.708 71.3351 124.706L107.84 103.617C109.577 102.612 111.202 100.905 112.417 98.8012C113.632 96.6973 114.3 94.4327 114.3 92.4292V50.2753C114.3 48.2668 113.632 46.0072 112.417 43.9032C111.202 41.7993 109.577 40.0896 107.84 39.0878L71.3351 17.9983C69.5977 17.0091 67.303 16.4568 64.8751 16.4568Z" fill="white"/>
<path d="M89.9866 53.4938L91.4051 57.8573H95.9921L92.2813 60.5537L93.6973 64.9147L89.9866 62.2183L86.2758 64.9147L87.6944 60.5537L83.9836 57.8573H88.5706L89.9866 53.4938Z" fill="#E1828D"/>
<path d="M102.671 55.7383L103.532 58.387H106.316L104.064 60.024L104.923 62.6702L102.671 61.0333L100.419 62.6702L101.28 60.024L99.0278 58.387H101.812L102.671 55.7383Z" fill="#E1828D"/>
<path d="M39.7607 53.4938L38.3447 57.8573H33.7577L37.4685 60.5537L36.0499 64.9147L39.7607 62.2183L43.4714 64.9147L42.0554 60.5537L45.7662 57.8573H41.1792L39.7607 53.4938Z" fill="#E1828D"/>
<path d="M27.0775 55.7383L26.2188 58.387H23.4345L25.6866 60.024L24.8254 62.6702L27.0775 61.0333L29.3295 62.6702L28.4709 60.024L30.7229 58.387H27.9386L27.0775 55.7383Z" fill="#E1828D"/>
<path d="M44.1959 96.787L67.4115 50.818V50.4715H40.1534V37.651H84.0435V50.4715L60.7124 96.787H44.1959Z" fill="url(#paint2_linear_1_220)"/>
<path d="M41.5958 91.2811H38.0832V82.1519H41.5601C42.4992 82.1519 43.3105 82.3347 43.994 82.7002C44.6805 83.0628 45.2094 83.5858 45.5809 84.2693C45.9554 84.9498 46.1426 85.7656 46.1426 86.7165C46.1426 87.6675 45.9568 88.4847 45.5854 89.1682C45.2139 89.8487 44.6879 90.3718 44.0074 90.7373C43.3268 91.0999 42.523 91.2811 41.5958 91.2811ZM40.5616 89.1771H41.5067C41.9584 89.1771 42.3432 89.1043 42.6612 88.9587C42.9821 88.8131 43.2258 88.562 43.3922 88.2054C43.5616 87.8488 43.6463 87.3525 43.6463 86.7165C43.6463 86.0806 43.5601 85.5843 43.3878 85.2277C43.2184 84.8711 42.9688 84.62 42.6389 84.4743C42.312 84.3287 41.9108 84.2559 41.4353 84.2559H40.5616V89.1771ZM49.7677 82.1519V91.2811H47.2893V82.1519H49.7677ZM53.3138 91.2811H50.6392L53.6525 82.1519H57.0403L60.0537 91.2811H57.3791L55.3821 84.666H55.3108L53.3138 91.2811ZM52.8145 87.6794H57.8427V89.5337H52.8145V87.6794ZM65.4987 85.0048C65.4749 84.7076 65.3634 84.4758 65.1643 84.3094C64.9682 84.143 64.6695 84.0598 64.2684 84.0598C64.0128 84.0598 63.8033 84.091 63.6398 84.1534C63.4794 84.2128 63.3605 84.2946 63.2832 84.3986C63.206 84.5026 63.1658 84.6214 63.1629 84.7552C63.1569 84.8651 63.1762 84.9647 63.2208 85.0538C63.2684 85.14 63.3427 85.2188 63.4437 85.2901C63.5447 85.3584 63.674 85.4208 63.8315 85.4773C63.989 85.5338 64.1762 85.5843 64.3932 85.6289L65.1421 85.7893C65.6472 85.8963 66.0796 86.0375 66.4392 86.2128C66.7988 86.3882 67.093 86.5947 67.3218 86.8324C67.5507 87.0672 67.7186 87.3317 67.8255 87.6259C67.9355 87.9201 67.992 88.241 67.9949 88.5887C67.992 89.189 67.8419 89.6972 67.5447 90.1132C67.2475 90.5293 66.8226 90.8458 66.2698 91.0627C65.7201 91.2796 65.0588 91.3881 64.2862 91.3881C63.4927 91.3881 62.8003 91.2707 62.2089 91.036C61.6205 90.8012 61.1629 90.4401 60.836 89.9528C60.5121 89.4624 60.3486 88.8354 60.3457 88.0716H62.6993C62.7141 88.351 62.784 88.5858 62.9088 88.7759C63.0336 88.9661 63.2089 89.1103 63.4348 89.2083C63.6636 89.3064 63.9355 89.3554 64.2505 89.3554C64.515 89.3554 64.7364 89.3227 64.9147 89.2574C65.093 89.192 65.2282 89.1014 65.3204 88.9855C65.4125 88.8696 65.46 88.7373 65.463 88.5887C65.46 88.4491 65.414 88.3272 65.3248 88.2232C65.2386 88.1162 65.096 88.0211 64.8969 87.9379C64.6978 87.8517 64.4288 87.7715 64.0901 87.6972L63.1807 87.5011C62.3724 87.3257 61.7349 87.033 61.2684 86.6229C60.8048 86.2098 60.5745 85.6467 60.5775 84.9335C60.5745 84.354 60.729 83.8473 61.041 83.4134C61.3561 82.9766 61.7914 82.6363 62.3471 82.3926C62.9058 82.149 63.5462 82.0271 64.2684 82.0271C65.0054 82.0271 65.6428 82.1504 66.1807 82.3971C66.7186 82.6438 67.1331 82.9914 67.4244 83.4402C67.7186 83.8859 67.8671 84.4075 67.8701 85.0048H65.4987ZM74.951 91.2811H71.4384V82.1519H74.9154C75.8545 82.1519 76.6657 82.3347 77.3492 82.7002C78.0357 83.0628 78.5647 83.5858 78.9362 84.2693C79.3106 84.9498 79.4978 85.7656 79.4978 86.7165C79.4978 87.6675 79.3121 88.4847 78.9406 89.1682C78.5691 89.8487 78.0431 90.3718 77.3626 90.7373C76.6821 91.0999 75.8782 91.2811 74.951 91.2811ZM73.9169 89.1771H74.8619C75.3136 89.1771 75.6984 89.1043 76.0164 88.9587C76.3374 88.8131 76.581 88.562 76.7475 88.2054C76.9168 87.8488 77.0015 87.3525 77.0015 86.7165C77.0015 86.0806 76.9154 85.5843 76.743 85.2277C76.5736 84.8711 76.324 84.62 75.9941 84.4743C75.6672 84.3287 75.266 84.2559 74.7906 84.2559H73.9169V89.1771ZM80.6445 91.2811V82.1519H87.224V84.1489H83.123V85.718H86.8852V87.715H83.123V89.2841H87.2061V91.2811H80.6445Z" fill="white"/>
<path d="M34.5118 96.1484C34.4732 95.9909 34.4123 95.8527 34.3291 95.7339C34.2459 95.612 34.1419 95.5095 34.017 95.4263C33.8952 95.3401 33.7526 95.2762 33.5891 95.2346C33.4286 95.19 33.2518 95.1678 33.0586 95.1678C32.6426 95.1678 32.2875 95.2673 31.9933 95.4664C31.702 95.6655 31.4792 95.9523 31.3246 96.3267C31.1731 96.7012 31.0973 97.1529 31.0973 97.6819C31.0973 98.2168 31.1701 98.6744 31.3157 99.0548C31.4613 99.4352 31.6783 99.7264 31.9665 99.9285C32.2548 100.131 32.6129 100.232 33.0408 100.232C33.4182 100.232 33.7318 100.177 33.9814 100.067C34.234 99.9567 34.4227 99.8007 34.5475 99.5986C34.6723 99.3965 34.7347 99.1588 34.7347 98.8854L35.1626 98.93H33.0765V97.1648H37.124V98.4307C37.124 99.2628 36.9472 99.9746 36.5935 100.566C36.2429 101.154 35.7585 101.606 35.1404 101.921C34.5252 102.233 33.8194 102.389 33.023 102.389C32.1344 102.389 31.3544 102.2 30.6827 101.823C30.0111 101.446 29.4866 100.908 29.1092 100.209C28.7348 99.511 28.5475 98.6804 28.5475 97.7175C28.5475 96.9627 28.662 96.294 28.8908 95.7116C29.1226 95.1291 29.4435 94.6373 29.8536 94.2361C30.2637 93.832 30.7377 93.5274 31.2756 93.3223C31.8135 93.1143 32.39 93.0103 33.0052 93.0103C33.546 93.0103 34.0482 93.0875 34.5118 93.2421C34.9784 93.3936 35.39 93.6106 35.7466 93.8929C36.1062 94.1722 36.3959 94.5036 36.6158 94.8869C36.8357 95.2703 36.9695 95.6908 37.017 96.1484H34.5118ZM40.3691 102.264H37.6946L40.7079 93.1351H44.0957L47.1091 102.264H44.4345L42.4375 95.6492H42.3662L40.3691 102.264ZM39.8699 98.6625H44.8981V100.517H39.8699V98.6625ZM47.9883 102.264V93.1351H51.9289C52.6064 93.1351 53.1993 93.2584 53.7074 93.5051C54.2156 93.7517 54.6109 94.1068 54.8932 94.5704C55.1755 95.034 55.3166 95.5897 55.3166 96.2376C55.3166 96.8914 55.171 97.4426 54.8798 97.8914C54.5915 98.3401 54.1859 98.6789 53.6629 98.9077C53.1428 99.1365 52.5351 99.2509 51.8397 99.2509H49.4861V97.3252H51.3405C51.6317 97.3252 51.8798 97.2896 52.0849 97.2183C52.2929 97.144 52.4519 97.0266 52.5618 96.8661C52.6748 96.7056 52.7312 96.4961 52.7312 96.2376C52.7312 95.9761 52.6748 95.7636 52.5618 95.6001C52.4519 95.4337 52.2929 95.3119 52.0849 95.2346C51.8798 95.1544 51.6317 95.1143 51.3405 95.1143H50.4668V102.264H47.9883ZM53.3375 98.0741L55.6198 102.264H52.9274L50.6986 98.0741H53.3375ZM58.7446 102.264H56.07L59.0833 93.1351H62.4711L65.4845 102.264H62.8099L60.8129 95.6492H60.7416L58.7446 102.264ZM58.2453 98.6625H63.2735V100.517H58.2453V98.6625ZM74.2626 93.1351V102.264H72.1943L68.8957 97.4679H68.8422V102.264H66.3637V93.1351H68.4677L71.7129 97.9136H71.7842V93.1351H74.2626ZM75.1854 95.1321V93.1351H83.1199V95.1321H80.374V102.264H77.9313V95.1321H75.1854ZM86.5311 93.1351V102.264H84.0527V93.1351H86.5311ZM90.0771 102.264H87.4026L90.4159 93.1351H93.8037L96.8171 102.264H94.1425L92.1455 95.6492H92.0742L90.0771 102.264ZM89.5779 98.6625H94.6061V100.517H89.5779V98.6625Z" fill="white"/>
<defs>
<linearGradient id="paint0_linear_1_220" x1="16.201" y1="22.6828" x2="112.738" y2="119.217" gradientUnits="userSpaceOnUse">
<stop offset="0.01" stop-color="#D3DA30"/>
<stop offset="1" stop-color="#F98794"/>
</linearGradient>
<linearGradient id="paint1_linear_1_220" x1="12.6462" y1="71.3546" x2="117.102" y2="71.3546" gradientUnits="userSpaceOnUse">
<stop offset="0.01" stop-color="#D3DA30"/>
<stop offset="1" stop-color="#D3DA30"/>
</linearGradient>
<linearGradient id="paint2_linear_1_220" x1="62.6589" y1="-9.23673" x2="62.6589" y2="81.5925" gradientUnits="userSpaceOnUse">
<stop offset="0.613668" stop-color="#E1828D"/>
<stop offset="1" stop-color="#E1828D" stop-opacity="0"/>
</linearGradient>
</defs>
</svg>
