<svg width="30" height="21" viewBox="0 0 30 21" fill="none" xmlns="http://www.w3.org/2000/svg">
<path fill-rule="evenodd" clip-rule="evenodd" d="M14.9012 14.3946C13.9086 15.2512 12.6211 15.7682 11.2143 15.7682C8.07509 15.7682 5.53029 13.1939 5.53029 10.0183C5.53029 6.84265 8.07509 4.26831 11.2143 4.26831C12.6211 4.26831 13.9086 4.78538 14.9012 5.6419C15.8937 4.78539 17.1812 4.26833 18.5881 4.26833C21.7272 4.26833 24.272 6.84267 24.272 10.0183C24.272 13.1939 21.7272 15.7682 18.5881 15.7682C17.1812 15.7682 15.8937 15.2512 14.9012 14.3946Z" fill="white"/>
<path fill-rule="evenodd" clip-rule="evenodd" d="M14.9012 14.3946C16.1233 13.34 16.8982 11.7707 16.8982 10.0183C16.8982 8.26586 16.1233 6.69655 14.9012 5.6419C15.8937 4.78538 17.1812 4.26831 18.5881 4.26831C21.7272 4.26831 24.272 6.84265 24.272 10.0183C24.272 13.1939 21.7272 15.7682 18.5881 15.7682C17.1812 15.7682 15.8937 15.2512 14.9012 14.3946Z" fill="#F4F4F4"/>
<path fill-rule="evenodd" clip-rule="evenodd" d="M14.9012 14.3947C16.1233 13.34 16.8982 11.7707 16.8982 10.0183C16.8982 8.26592 16.1233 6.69662 14.9012 5.64197C13.6791 6.69662 12.9041 8.26592 12.9041 10.0183C12.9041 11.7707 13.6791 13.34 14.9012 14.3947Z" fill="#494949"/>
</svg>
