<svg width="30" height="21" viewBox="0 0 30 21" fill="none" xmlns="http://www.w3.org/2000/svg">
<path fill-rule="evenodd" clip-rule="evenodd" d="M8.27046 12.7987H6.97469C6.88602 12.7987 6.8106 12.8632 6.79678 12.9507L6.2727 16.2734C6.26228 16.339 6.31306 16.3981 6.37956 16.3981H6.99818C7.08685 16.3981 7.16226 16.3337 7.17609 16.246L7.31744 15.3498C7.33108 15.262 7.40667 15.1977 7.49516 15.1977H7.90536C8.75893 15.1977 9.25153 14.7846 9.38024 13.9661C9.4382 13.608 9.3827 13.3266 9.21496 13.1295C9.03083 12.9132 8.70413 12.7987 8.27046 12.7987ZM8.41996 14.0123C8.34911 14.4773 7.99385 14.4773 7.65034 14.4773H7.4548L7.59198 13.6089C7.60013 13.5564 7.6456 13.5178 7.69865 13.5178H7.78827C8.02226 13.5178 8.24302 13.5178 8.35709 13.6511C8.42505 13.7308 8.44591 13.8489 8.41996 14.0123ZM12.1439 13.9974H11.5233C11.4705 13.9974 11.4248 14.0361 11.4166 14.0886L11.3892 14.2621L11.3458 14.1992C11.2115 14.0042 10.9119 13.9391 10.6129 13.9391C9.92719 13.9391 9.34157 14.4584 9.2275 15.187C9.16823 15.5503 9.25249 15.8978 9.45863 16.1401C9.64776 16.3629 9.91834 16.4558 10.2402 16.4558C10.7927 16.4558 11.0991 16.1005 11.0991 16.1005L11.0714 16.273C11.061 16.3389 11.1118 16.398 11.1779 16.398H11.7368C11.8258 16.398 11.9007 16.3336 11.9147 16.2459L12.2501 14.1221C12.2607 14.0568 12.2101 13.9974 12.1439 13.9974ZM11.2789 15.2051C11.219 15.5596 10.9376 15.7976 10.5788 15.7976C10.3987 15.7976 10.2546 15.7398 10.1622 15.6303C10.0705 15.5216 10.0356 15.3667 10.0648 15.1943C10.1207 14.8428 10.4068 14.5971 10.7602 14.5971C10.9363 14.5971 11.0796 14.6556 11.1739 14.7661C11.2685 14.8777 11.306 15.0334 11.2789 15.2051ZM14.8251 13.9973H15.4486C15.536 13.9973 15.5869 14.0952 15.5373 14.1669L13.4634 17.1605C13.4298 17.209 13.3745 17.2378 13.3154 17.2378H12.6926C12.6049 17.2378 12.5537 17.1391 12.6044 17.0673L13.2502 16.1557L12.5634 14.1401C12.5396 14.0701 12.5914 13.9973 12.6659 13.9973H13.2786C13.3582 13.9973 13.4285 14.0496 13.4514 14.1258L13.8159 15.3431L14.676 14.0763C14.7097 14.0269 14.7656 13.9973 14.8251 13.9973Z" fill="white"/>
<path fill-rule="evenodd" clip-rule="evenodd" d="M21.5858 16.2735L22.1176 12.8899C22.1258 12.8374 22.1713 12.7988 22.2241 12.7986H22.8228C22.8889 12.7986 22.9397 12.8579 22.9293 12.9234L22.4048 16.246C22.3912 16.3337 22.3158 16.3981 22.2269 16.3981H21.6923C21.6261 16.3981 21.5754 16.3391 21.5858 16.2735ZM17.5131 12.7988H16.2171C16.1286 12.7988 16.0532 12.8632 16.0394 12.9507L15.5153 16.2735C15.5049 16.3391 15.5556 16.3981 15.6218 16.3981H16.2868C16.3486 16.3981 16.4015 16.3531 16.4111 16.2917L16.5599 15.3498C16.5735 15.2621 16.6491 15.1977 16.7376 15.1977H17.1476C18.0013 15.1977 18.4938 14.7846 18.6226 13.9661C18.6808 13.6081 18.6249 13.3267 18.4573 13.1296C18.2732 12.9133 17.9468 12.7988 17.5131 12.7988ZM17.6626 14.0124C17.5919 14.4773 17.2367 14.4773 16.893 14.4773H16.6976L16.835 13.6089C16.8431 13.5565 16.8882 13.5178 16.9414 13.5178H17.031C17.2649 13.5178 17.4859 13.5178 17.5998 13.6512C17.6679 13.7308 17.6886 13.849 17.6626 14.0124ZM21.3862 13.9974H20.7661C20.7128 13.9974 20.6675 14.0361 20.6596 14.0886L20.6321 14.2622L20.5885 14.1993C20.4542 14.0043 20.1549 13.9391 19.8559 13.9391C19.1701 13.9391 18.5847 14.4585 18.4706 15.187C18.4115 15.5504 18.4954 15.8978 18.7015 16.1402C18.891 16.363 19.1613 16.4558 19.4831 16.4558C20.0356 16.4558 20.342 16.1006 20.342 16.1006L20.3144 16.273C20.3039 16.339 20.3547 16.3981 20.4212 16.3981H20.9799C21.0684 16.3981 21.1438 16.3336 21.1577 16.2459L21.4932 14.1221C21.5035 14.0568 21.4527 13.9974 21.3862 13.9974ZM20.5213 15.2052C20.4617 15.5597 20.18 15.7976 19.8211 15.7976C19.6413 15.7976 19.497 15.7398 19.4045 15.6303C19.3128 15.5216 19.2783 15.3668 19.3072 15.1944C19.3634 14.8429 19.6491 14.5972 20.0025 14.5972C20.1787 14.5972 20.3219 14.6557 20.4163 14.7661C20.5112 14.8778 20.5487 15.0335 20.5213 15.2052Z" fill="white"/>
<path d="M13.0659 11.61L13.2252 10.5982L12.8703 10.59H11.1759L12.3535 3.12338C12.357 3.10084 12.369 3.07982 12.3863 3.0649C12.4037 3.04997 12.426 3.04175 12.4491 3.04175H15.3062C16.2547 3.04175 16.9093 3.23913 17.251 3.6287C17.4112 3.81146 17.5133 4.00244 17.5627 4.21261C17.6144 4.43315 17.6154 4.69662 17.5648 5.01797L17.5611 5.04143V5.24733L17.7214 5.3381C17.8563 5.40968 17.9635 5.49161 18.0457 5.58543C18.1828 5.74169 18.2715 5.94029 18.3089 6.17574C18.3476 6.41789 18.3348 6.70604 18.2715 7.03227C18.1984 7.40753 18.0802 7.73436 17.9206 8.0018C17.7737 8.24822 17.5867 8.45256 17.3647 8.611C17.1527 8.76146 16.9008 8.8757 16.616 8.94883C16.34 9.02064 16.0254 9.05694 15.6802 9.05694H15.4579C15.2989 9.05694 15.1444 9.1142 15.0233 9.21687C14.9017 9.32165 14.8212 9.46475 14.7966 9.62134L14.7798 9.71244L14.4984 11.4958L14.4856 11.5613C14.4823 11.5821 14.4765 11.5924 14.468 11.5994C14.4603 11.6057 14.4494 11.61 14.4387 11.61H13.0659Z" fill="white"/>
<path d="M17.8731 5.06519C17.8646 5.11971 17.8548 5.17544 17.8439 5.23271C17.467 7.1672 16.178 7.83549 14.5316 7.83549H13.6934C13.4921 7.83549 13.3224 7.98169 13.291 8.18029L12.8618 10.9022L12.7403 11.6737C12.7199 11.8041 12.8204 11.9217 12.952 11.9217H14.4388C14.6148 11.9217 14.7643 11.7937 14.792 11.6201L14.8067 11.5445L15.0866 9.76813L15.1046 9.67071C15.132 9.49649 15.2818 9.36857 15.4579 9.36857H15.6802C17.1207 9.36857 18.2483 8.78373 18.5779 7.09136C18.7156 6.38439 18.6443 5.79409 18.28 5.37892C18.1698 5.25373 18.033 5.14986 17.8731 5.06519Z" fill="#CECECE"/>
<path d="M17.4788 4.90819C17.4212 4.89143 17.3618 4.8762 17.3009 4.8625C17.2397 4.8491 17.1769 4.83722 17.1123 4.82686C16.8863 4.79031 16.6387 4.77295 16.3734 4.77295H14.134C14.0788 4.77295 14.0265 4.78543 13.9796 4.80798C13.8763 4.85762 13.7996 4.9554 13.781 5.07511L13.3045 8.09244L13.2909 8.18047C13.3222 7.98187 13.4919 7.83566 13.6932 7.83566H14.5315C16.1778 7.83566 17.4669 7.16708 17.8437 5.23289C17.8549 5.17562 17.8644 5.11989 17.8729 5.06537C17.7776 5.0148 17.6743 4.97155 17.5631 4.93469C17.5358 4.92555 17.5074 4.91672 17.4788 4.90819Z" fill="white"/>
<path d="M13.781 5.07507C13.7996 4.95536 13.8764 4.85759 13.9796 4.80824C14.0269 4.7857 14.0789 4.77321 14.134 4.77321H16.3735C16.6388 4.77321 16.8864 4.79057 17.1124 4.82712C17.177 4.83748 17.2398 4.84936 17.301 4.86276C17.3619 4.87647 17.4213 4.8917 17.4789 4.90845C17.5074 4.91698 17.5358 4.92581 17.5635 4.93465C17.6747 4.9715 17.7779 5.01506 17.8733 5.06532C17.9854 4.35043 17.8724 3.86369 17.4859 3.42293C17.0598 2.93771 16.2906 2.72998 15.3065 2.72998H12.4493C12.2483 2.72998 12.0768 2.87618 12.0457 3.07508L10.8557 10.6184C10.8322 10.7676 10.9473 10.9023 11.0978 10.9023H12.8618L13.3046 8.0924L13.781 5.07507Z" fill="white"/>
</svg>
