<svg width="30" height="21" viewBox="0 0 30 21" fill="none" xmlns="http://www.w3.org/2000/svg">
<path d="M12.8015 13.3488V9.05053C12.8015 8.86249 12.8386 8.67629 12.9105 8.50257C12.9825 8.32885 13.088 8.17101 13.221 8.03806C13.354 7.90512 13.5118 7.79967 13.6856 7.72775C13.8593 7.65583 14.0455 7.61884 14.2336 7.6189H15.5012C15.88 7.61968 16.2429 7.77068 16.5105 8.03876C16.778 8.30684 16.9282 8.67011 16.9282 9.04884V9.96368C16.9282 10.3435 16.7773 10.7077 16.5088 10.9763C16.2402 11.2449 15.876 11.3957 15.4962 11.3957H13.7032" stroke="white" stroke-width="0.373678" stroke-linecap="round" stroke-linejoin="round"/>
<path d="M17.284 7.61816H17.8333C17.9892 7.61816 18.1387 7.68009 18.249 7.79032C18.3592 7.90055 18.4211 8.05006 18.4211 8.20594V11.4174" stroke="white" stroke-width="0.373678" stroke-linecap="round" stroke-linejoin="round"/>
<path d="M18.3024 7.12068L18.0531 6.87095C18.0383 6.85623 18.0266 6.83875 18.0186 6.81949C18.0106 6.80024 18.0065 6.7796 18.0065 6.75876C18.0065 6.73792 18.0106 6.71728 18.0186 6.69803C18.0266 6.67878 18.0383 6.66129 18.0531 6.64657L18.3024 6.39726C18.3171 6.38251 18.3346 6.3708 18.3538 6.36281C18.3731 6.35482 18.3937 6.35071 18.4146 6.35071C18.4354 6.35071 18.456 6.35482 18.4753 6.36281C18.4946 6.3708 18.512 6.38251 18.5268 6.39726L18.7765 6.64657C18.7912 6.66129 18.803 6.67878 18.8109 6.69803C18.8189 6.71728 18.823 6.73792 18.823 6.75876C18.823 6.7796 18.8189 6.80024 18.8109 6.81949C18.803 6.83875 18.7912 6.85623 18.7765 6.87095L18.5268 7.12068C18.512 7.13544 18.4946 7.14715 18.4753 7.15514C18.456 7.16313 18.4354 7.16724 18.4146 7.16724C18.3937 7.16724 18.3731 7.16313 18.3538 7.15514C18.3346 7.14715 18.3171 7.13544 18.3024 7.12068Z" fill="white"/>
<path d="M19.4784 7.6156H20.0243C20.3052 7.61565 20.5745 7.72721 20.7731 7.92576L22.0501 9.20231C22.0893 9.24173 22.136 9.273 22.1874 9.29434C22.2387 9.31568 22.2938 9.32667 22.3495 9.32667C22.4051 9.32667 22.4602 9.31568 22.5115 9.29434C22.5629 9.273 22.6096 9.24173 22.6488 9.20231L23.9224 7.93041C24.0207 7.83206 24.1375 7.75404 24.266 7.70083C24.3944 7.64761 24.5321 7.62023 24.6712 7.62025H25.1149" stroke="white" stroke-width="0.373678" stroke-linecap="round" stroke-linejoin="round"/>
<path d="M19.4784 11.3886H20.0243C20.3052 11.3886 20.5745 11.277 20.7731 11.0785L22.0501 9.80233C22.0893 9.76292 22.136 9.73164 22.1874 9.7103C22.2387 9.68896 22.2938 9.67798 22.3495 9.67798C22.4051 9.67798 22.4602 9.68896 22.5115 9.7103C22.5629 9.73164 22.6096 9.76292 22.6488 9.80233L23.9224 11.0738C24.0207 11.1722 24.1375 11.2502 24.266 11.3034C24.3944 11.3566 24.5321 11.384 24.6712 11.384H25.1149" stroke="white" stroke-width="0.373678" stroke-linecap="round" stroke-linejoin="round"/>
<path d="M9.54695 12.2041C9.41215 12.2045 9.27861 12.1782 9.15407 12.1266C9.02952 12.075 8.91645 11.9993 8.82141 11.9037L7.77388 10.8587C7.7369 10.8232 7.68761 10.8033 7.63634 10.8033C7.58507 10.8033 7.53578 10.8232 7.49879 10.8587L6.44747 11.9096C6.35242 12.0052 6.23935 12.0809 6.11481 12.1325C5.99027 12.1841 5.85673 12.2104 5.72193 12.21H5.51572L6.84214 13.5369C7.04118 13.7357 7.31103 13.8474 7.59239 13.8474C7.87376 13.8474 8.14361 13.7357 8.34265 13.5369L9.67287 12.2062L9.54695 12.2041Z" fill="white"/>
<path d="M5.72193 8.49916C5.85672 8.49885 5.99023 8.52523 6.11476 8.5768C6.23929 8.62837 6.35236 8.70409 6.44747 8.7996L7.4988 9.85093C7.53531 9.88734 7.58477 9.90779 7.63634 9.90779C7.6879 9.90779 7.73737 9.88734 7.77388 9.85093L8.82141 8.8034C8.91651 8.70789 9.02959 8.63217 9.15412 8.5806C9.27865 8.52904 9.41216 8.50265 9.54695 8.50297H9.67371L8.34349 7.17275C8.24499 7.07417 8.12804 6.99598 7.99931 6.94263C7.87057 6.88928 7.73259 6.86182 7.59324 6.86182C7.45389 6.86182 7.31591 6.88928 7.18717 6.94263C7.05844 6.99598 6.94149 7.07417 6.84299 7.17275L5.51657 8.49916H5.72193Z" fill="white"/>
<path d="M10.7736 9.60322L9.97077 8.80036C9.95261 8.80762 9.93328 8.81149 9.91372 8.81177H9.54821C9.35793 8.81256 9.17568 8.8885 9.04114 9.02305L7.99192 10.0685C7.94529 10.1152 7.88989 10.1522 7.8289 10.1774C7.76792 10.2027 7.70255 10.2156 7.63655 10.2155C7.5032 10.2157 7.37522 10.163 7.28076 10.0689L6.22943 9.01755C6.09489 8.883 5.91263 8.80706 5.72236 8.80627H5.27317C5.25463 8.80593 5.2363 8.80221 5.21909 8.79529L4.412 9.60238C4.31343 9.70088 4.23523 9.81783 4.18188 9.94657C4.12853 10.0753 4.10107 10.2133 4.10107 10.3526C4.10107 10.492 4.12853 10.63 4.18188 10.7587C4.23523 10.8874 4.31343 11.0044 4.412 11.1029L5.21909 11.91C5.2363 11.9031 5.25463 11.8993 5.27317 11.899H5.72236C5.9126 11.8981 6.09481 11.8221 6.22943 11.6877L7.28076 10.6364C7.37657 10.545 7.50391 10.494 7.63634 10.494C7.76877 10.494 7.89611 10.545 7.99192 10.6364L9.03945 11.6839C9.17407 11.8183 9.35628 11.8943 9.54652 11.8952H9.91203C9.93163 11.8954 9.95101 11.8994 9.96908 11.907L10.7719 11.1042C10.9708 10.9051 11.0825 10.6353 11.0825 10.3539C11.0825 10.0725 10.9708 9.80268 10.7719 9.60364" fill="white"/>
<path d="M13.893 12.9834C13.8265 12.9863 13.7604 12.9964 13.6961 13.0134V13.2753C13.7453 13.2927 13.7972 13.3014 13.8494 13.3011C13.9809 13.3011 14.043 13.2568 14.043 13.141C14.043 13.0324 13.9918 12.9834 13.893 12.9834ZM13.6517 13.4697V12.9521H13.688L13.6918 12.9745C13.7588 12.9566 13.8275 12.9455 13.8968 12.9415C13.9447 12.9382 13.9923 12.952 14.0311 12.9804C14.0524 13.001 14.0687 13.0262 14.0789 13.054C14.0892 13.0818 14.0931 13.1115 14.0903 13.141C14.0928 13.1739 14.0863 13.2068 14.0714 13.2362C14.0565 13.2657 14.0338 13.2904 14.0058 13.3079C13.9584 13.3312 13.9061 13.3428 13.8532 13.3417C13.7998 13.3414 13.7467 13.3333 13.6956 13.3176V13.4697H13.6517Z" fill="white"/>
<path d="M14.4199 12.982C14.2885 12.982 14.2302 13.0243 14.2302 13.1388C14.2302 13.2533 14.2881 13.3011 14.4199 13.3011C14.5517 13.3011 14.6092 13.2588 14.6092 13.1447C14.6092 13.0306 14.5513 12.982 14.4199 12.982ZM14.5889 13.3011C14.5383 13.3324 14.4793 13.3471 14.4199 13.3433C14.3606 13.3469 14.3016 13.3321 14.2509 13.3011C14.2272 13.2823 14.2086 13.2578 14.1968 13.23C14.185 13.2022 14.1804 13.1719 14.1833 13.1418C14.1806 13.1116 14.1853 13.0813 14.1971 13.0535C14.2089 13.0256 14.2274 13.0011 14.2509 12.982C14.3015 12.9508 14.3605 12.936 14.4199 12.9398C14.4793 12.9361 14.5383 12.9509 14.5889 12.982C14.6124 13.0009 14.6309 13.0253 14.6427 13.053C14.6545 13.0807 14.6593 13.1109 14.6565 13.1409C14.6594 13.1711 14.6548 13.2016 14.643 13.2295C14.6312 13.2575 14.6126 13.2821 14.5889 13.3011Z" fill="white"/>
<path d="M15.2105 13.3311L15.0643 13.0167H15.0613L14.9173 13.3311H14.8796L14.7233 12.9508H14.7723L14.902 13.269H14.905L15.0461 12.9508H15.0884L15.2333 13.269H15.2363L15.3631 12.9508H15.4104L15.2545 13.3311H15.2105Z" fill="white"/>
<path d="M15.6897 12.9812C15.568 12.9812 15.527 13.0353 15.5207 13.1135H15.8612C15.8579 13.0268 15.8135 12.9812 15.6922 12.9812H15.6897ZM15.6922 13.3416C15.6363 13.3476 15.5801 13.3325 15.5346 13.2994C15.5128 13.2794 15.4957 13.2547 15.4848 13.2272C15.4738 13.1997 15.4692 13.17 15.4712 13.1405C15.4696 13.1098 15.4751 13.0792 15.4874 13.051C15.4996 13.0229 15.5182 12.9979 15.5418 12.9782C15.586 12.9507 15.6377 12.9374 15.6897 12.9402C15.7428 12.9369 15.7957 12.9497 15.8414 12.977C15.8963 13.0137 15.9069 13.0784 15.9069 13.1519H15.5177C15.5177 13.2297 15.5448 13.299 15.6918 13.299C15.7577 13.2974 15.8233 13.29 15.8879 13.277V13.3167C15.8222 13.3304 15.7555 13.3383 15.6884 13.3404" fill="white"/>
<path d="M16.0337 13.3311V12.9507H16.07L16.0738 12.9731C16.1346 12.9532 16.1979 12.9421 16.2618 12.9402H16.2673V12.9824H16.2568C16.1961 12.9838 16.1358 12.9939 16.078 13.0124V13.3302L16.0337 13.3311Z" fill="white"/>
<path d="M16.5247 12.9813C16.403 12.9813 16.3616 13.0353 16.3556 13.1135H16.6966C16.6928 13.0269 16.6485 12.9813 16.5276 12.9813H16.5247ZM16.5276 13.3417C16.4717 13.3475 16.4155 13.3325 16.37 13.2994C16.3491 13.2792 16.3329 13.2546 16.3227 13.2273C16.3125 13.2 16.3084 13.1708 16.3109 13.1418C16.3092 13.1112 16.3147 13.0805 16.327 13.0524C16.3392 13.0242 16.3579 12.9993 16.3814 12.9796C16.4256 12.952 16.4773 12.9387 16.5293 12.9415C16.5823 12.9383 16.635 12.9511 16.6806 12.9783C16.7355 13.0151 16.7461 13.0797 16.7461 13.1532H16.3573C16.3573 13.231 16.3844 13.3003 16.5314 13.3003C16.5973 13.2987 16.6629 13.2913 16.7275 13.2783V13.318C16.6617 13.3317 16.5948 13.3397 16.5276 13.3417Z" fill="white"/>
<path d="M17.2265 13.0074C17.1774 12.9902 17.1256 12.9816 17.0736 12.982C16.9422 12.982 16.8796 13.0264 16.8796 13.1418C16.8796 13.2571 16.9308 13.2994 17.0301 13.2994C17.0964 13.2962 17.1622 13.2865 17.2265 13.2702V13.0074ZM17.235 13.3311L17.2312 13.3082C17.1642 13.3263 17.0955 13.3375 17.0263 13.3416C16.9782 13.3453 16.9304 13.3313 16.8919 13.3023C16.8705 13.2818 16.854 13.2567 16.8437 13.2289C16.8334 13.2011 16.8295 13.1713 16.8323 13.1418C16.8298 13.109 16.8364 13.0762 16.8513 13.0469C16.8662 13.0176 16.8889 12.993 16.9168 12.9757C16.9643 12.9517 17.017 12.94 17.0702 12.9415C17.1233 12.9421 17.1761 12.9502 17.227 12.9655V12.7919H17.2713V13.3311H17.235Z" fill="white"/>
<path d="M17.9221 12.9833C17.8556 12.9863 17.7896 12.9963 17.7252 13.0133V13.2744C17.7743 13.2924 17.8262 13.3014 17.8786 13.3011C18.01 13.3011 18.0721 13.2567 18.0721 13.1409C18.0721 13.0323 18.021 12.9833 17.9221 12.9833ZM18.0353 13.3078C17.9879 13.3312 17.9356 13.3428 17.8828 13.3416C17.8253 13.341 17.7682 13.3313 17.7138 13.3129V13.3311H17.6833V12.7919H17.7256V12.9715C17.7913 12.9547 17.8586 12.9442 17.9263 12.9402C17.9743 12.9369 18.0219 12.9506 18.0607 12.9791C18.0819 12.9997 18.0982 13.0248 18.1085 13.0526C18.1187 13.0804 18.1226 13.1102 18.1198 13.1396C18.1224 13.1725 18.1158 13.2055 18.1009 13.2349C18.086 13.2643 18.0633 13.2891 18.0353 13.3065" fill="white"/>
<path d="M18.1756 13.4786V13.4363C18.1972 13.4363 18.2179 13.4401 18.2318 13.4401C18.2575 13.4422 18.2831 13.4357 18.3047 13.4215C18.3262 13.4073 18.3423 13.3864 18.3506 13.362L18.3649 13.332L18.1667 12.9517H18.2179L18.3869 13.2787H18.3899L18.5513 12.9517H18.6016L18.3903 13.3772C18.351 13.4545 18.3091 13.4799 18.2318 13.4799C18.2131 13.4807 18.1943 13.4803 18.1756 13.4786Z" fill="white"/>
<path d="M19.2134 13.1148H19.066V13.2479H19.2138C19.3153 13.2479 19.3537 13.2365 19.3537 13.1807C19.3537 13.1249 19.3009 13.1148 19.2134 13.1148ZM19.1864 12.8993H19.066V13.0345H19.1868C19.287 13.0345 19.3267 13.0227 19.3267 12.9661C19.3267 12.9094 19.2764 12.8993 19.1864 12.8993ZM19.4146 13.2952C19.3605 13.3295 19.295 13.3312 19.1758 13.3312H18.9514V12.8169H19.1703C19.2734 12.8169 19.3364 12.8169 19.3888 12.8499C19.4063 12.8603 19.4205 12.8754 19.4298 12.8934C19.4391 12.9115 19.4432 12.9318 19.4416 12.9521C19.4429 12.9775 19.4356 13.0026 19.4209 13.0233C19.4062 13.044 19.3849 13.0591 19.3605 13.0662V13.0692C19.4264 13.084 19.4691 13.1178 19.4691 13.1909C19.4707 13.2116 19.4664 13.2324 19.4568 13.2509C19.4471 13.2693 19.4325 13.2847 19.4146 13.2952Z" fill="white"/>
<path d="M19.9182 13.1719C19.876 13.168 19.8291 13.1659 19.7818 13.1659C19.7044 13.1659 19.6774 13.1816 19.6774 13.2171C19.6774 13.2526 19.6998 13.2678 19.7589 13.2678C19.8127 13.2659 19.8661 13.2584 19.9182 13.2454V13.1719ZM19.9406 13.3312L19.9377 13.3083C19.8706 13.3274 19.8016 13.3386 19.7319 13.3417C19.6918 13.3444 19.6518 13.3347 19.6174 13.3138C19.6033 13.3032 19.5921 13.2893 19.5848 13.2733C19.5774 13.2573 19.5741 13.2397 19.5751 13.2221C19.5742 13.2006 19.5797 13.1792 19.5911 13.1609C19.6025 13.1426 19.6192 13.1281 19.6389 13.1195C19.6844 13.1024 19.7329 13.0952 19.7813 13.0983C19.8211 13.0983 19.8743 13.1004 19.9187 13.1034V13.0983C19.9187 13.0392 19.8798 13.0197 19.7729 13.0197C19.7306 13.0197 19.6816 13.0218 19.6334 13.0265V12.9496C19.6867 12.9454 19.7467 12.9424 19.7961 12.9424C19.8571 12.937 19.9184 12.9492 19.9728 12.9775C20.015 13.0083 20.0243 13.051 20.0243 13.1076V13.332L19.9406 13.3312Z" fill="white"/>
<path d="M20.5191 13.3311V13.1198C20.5191 13.051 20.4836 13.026 20.4207 13.026C20.3684 13.0283 20.3165 13.0363 20.266 13.0501V13.3294H20.1617V12.9491H20.2462L20.25 12.9728C20.3159 12.9536 20.3838 12.9422 20.4524 12.9386C20.4991 12.9349 20.5455 12.9488 20.5825 12.9774C20.5979 12.9929 20.6097 13.0115 20.617 13.0321C20.6243 13.0526 20.6269 13.0745 20.6248 13.0962V13.3282L20.5191 13.3311Z" fill="white"/>
<path d="M20.9222 13.3416C20.8719 13.3455 20.8218 13.3313 20.7811 13.3015C20.7595 13.2811 20.7429 13.256 20.7325 13.2282C20.7221 13.2003 20.7182 13.1705 20.7211 13.1409C20.7191 13.1096 20.7252 13.0782 20.7387 13.0499C20.7522 13.0216 20.7728 12.9972 20.7984 12.9791C20.8491 12.9507 20.907 12.9376 20.9649 12.9415C21.0072 12.9415 21.0515 12.9444 21.0984 12.9486V13.0298C21.0604 13.0264 21.0139 13.023 20.9776 13.023C20.877 13.023 20.8297 13.0547 20.8297 13.1418C20.8297 13.2288 20.8652 13.2588 20.9476 13.2588C21.0012 13.2571 21.0545 13.2506 21.1069 13.2394V13.3175C21.0463 13.3315 20.9844 13.3395 20.9222 13.3416Z" fill="white"/>
<path d="M21.4204 13.0209C21.3199 13.0209 21.2755 13.0526 21.2755 13.1388C21.2755 13.225 21.3178 13.2617 21.4204 13.2617C21.5231 13.2617 21.5637 13.2309 21.5637 13.1447C21.5637 13.0585 21.5214 13.0209 21.4204 13.0209ZM21.6022 13.3015C21.547 13.3327 21.4837 13.3467 21.4204 13.3416C21.357 13.3465 21.2935 13.3326 21.2379 13.3015C21.2132 13.2833 21.1936 13.2591 21.181 13.2311C21.1685 13.2031 21.1635 13.1723 21.1665 13.1417C21.1635 13.1111 21.1685 13.0802 21.181 13.052C21.1936 13.0239 21.2131 12.9995 21.2379 12.9812C21.2935 12.9502 21.357 12.9364 21.4204 12.9414C21.4836 12.9366 21.5468 12.9504 21.6022 12.9812C21.6267 12.9994 21.6461 13.0237 21.6585 13.0517C21.6709 13.0797 21.6758 13.1104 21.6727 13.1409C21.6757 13.1715 21.6708 13.2023 21.6584 13.2304C21.6461 13.2585 21.6267 13.283 21.6022 13.3015Z" fill="white"/>
<path d="M22.2837 13.3417C22.2178 13.3458 22.1525 13.3268 22.0991 13.288C22.0374 13.2373 22.0188 13.1583 22.0188 13.0733C22.0166 13.0311 22.025 12.989 22.0432 12.9508C22.0614 12.9127 22.0889 12.8797 22.1232 12.8549C22.1895 12.8182 22.2651 12.8013 22.3408 12.8063C22.3978 12.8063 22.4561 12.8101 22.5199 12.8151V12.9077C22.4654 12.903 22.3978 12.8992 22.3454 12.8992C22.1988 12.8992 22.1367 12.955 22.1367 13.0733C22.1367 13.1917 22.1942 13.2483 22.3023 13.2483C22.3795 13.2457 22.4563 13.2354 22.5314 13.2174V13.3095C22.4501 13.3286 22.3672 13.3395 22.2837 13.3421" fill="white"/>
<path d="M22.8424 13.0091C22.7545 13.0091 22.7207 13.0404 22.7156 13.0983H22.9691C22.9662 13.0366 22.9303 13.0091 22.8424 13.0091ZM22.8267 13.3417C22.7699 13.3468 22.7131 13.3319 22.6662 13.2994C22.6447 13.2793 22.6281 13.2546 22.6175 13.2272C22.607 13.1997 22.6028 13.1703 22.6053 13.141C22.6036 13.1106 22.6092 13.0803 22.6216 13.0525C22.6339 13.0248 22.6527 13.0003 22.6763 12.9812C22.7262 12.9512 22.7842 12.9374 22.8424 12.9415C22.8997 12.938 22.9568 12.9512 23.0067 12.9796C23.0676 13.0218 23.0727 13.0886 23.0735 13.1667H22.7131C22.7156 13.2246 22.7464 13.2618 22.8529 13.2618C22.9206 13.2603 22.9881 13.2538 23.0549 13.2424V13.3168C22.9796 13.331 22.9033 13.3394 22.8267 13.3417Z" fill="white"/>
<path d="M23.5442 13.3311V13.1198C23.5442 13.051 23.5092 13.026 23.4462 13.026C23.3939 13.0283 23.342 13.0363 23.2915 13.0501V13.3294H23.1855V12.9491H23.2721L23.2759 12.9728C23.3418 12.9536 23.4097 12.9421 23.4783 12.9386C23.525 12.9349 23.5714 12.9488 23.6085 12.9774C23.6238 12.9929 23.6356 13.0115 23.6429 13.0321C23.6502 13.0526 23.6529 13.0745 23.6507 13.0962V13.3282L23.5442 13.3311Z" fill="white"/>
<path d="M23.9507 13.3417C23.9273 13.344 23.9037 13.3402 23.8822 13.3307C23.8607 13.3212 23.8419 13.3064 23.8278 13.2876C23.8068 13.2531 23.797 13.2129 23.7999 13.1727V13.0307H23.7234V12.9521H23.7999L23.8113 12.8372H23.9051V12.9521H24.0543V13.0307H23.9051V13.1524C23.9036 13.1769 23.9072 13.2015 23.9157 13.2246C23.9221 13.2369 23.9322 13.2469 23.9445 13.2532C23.9569 13.2594 23.9708 13.2617 23.9845 13.2597C24.0099 13.2593 24.0352 13.2567 24.0602 13.2521V13.3282C24.0242 13.3361 23.9876 13.3406 23.9507 13.3417Z" fill="white"/>
<path d="M24.1578 13.3311V12.9507H24.2423L24.2461 12.9744C24.3067 12.954 24.3699 12.9425 24.4337 12.9402H24.4472V13.0306C24.435 13.0306 24.421 13.0306 24.4105 13.0306C24.3603 13.0308 24.3103 13.0373 24.2617 13.0501V13.3302L24.1578 13.3311Z" fill="white"/>
<path d="M24.8339 13.1717C24.7895 13.1679 24.7443 13.1658 24.697 13.1658C24.6196 13.1658 24.5926 13.1815 24.5926 13.2169C24.5926 13.2524 24.6154 13.2677 24.6746 13.2677C24.7283 13.2657 24.7817 13.2582 24.8339 13.2453V13.1717ZM24.8563 13.331L24.8521 13.3095C24.785 13.3285 24.7159 13.3397 24.6463 13.3429C24.606 13.3455 24.5659 13.3358 24.5313 13.315C24.5173 13.3043 24.5062 13.2904 24.4988 13.2744C24.4914 13.2584 24.4881 13.2409 24.4891 13.2233C24.488 13.2011 24.494 13.1792 24.506 13.1605C24.5181 13.1419 24.5356 13.1275 24.5563 13.1193C24.6015 13.1027 24.6497 13.0958 24.6978 13.0991C24.7375 13.0991 24.7912 13.1012 24.8356 13.1041V13.0982C24.8356 13.039 24.7963 13.0196 24.6898 13.0196C24.6475 13.0196 24.5981 13.0217 24.5499 13.0264V12.9495C24.6036 12.9452 24.6636 12.9423 24.713 12.9423C24.7739 12.9369 24.8351 12.9491 24.8892 12.9774C24.9315 13.0082 24.9412 13.0509 24.9412 13.1075V13.3319L24.8563 13.331Z" fill="white"/>
<path d="M25.0756 12.7919H25.1816V13.3311H25.0756V12.7919Z" fill="white"/>
</svg>
