<svg width="12" height="13" viewBox="0 0 12 13" fill="none" xmlns="http://www.w3.org/2000/svg">
<path d="M5.64113 0.503784L0.202904 2.236V7.43264C0.202904 10.303 2.63736 12.6293 5.64113 12.6293C8.6449 12.6293 11.0794 10.303 11.0794 7.43264V2.236L5.64113 0.503784ZM10.0597 7.43264C10.0597 9.76436 8.08125 11.6549 5.64113 11.6549C3.20101 11.6549 1.22257 9.76436 1.22257 7.43264V2.96678L5.64113 1.47815L10.0597 2.96678V7.43264Z" fill="white"/>
<path d="M3.74909 6.06691C3.70184 6.02155 3.64567 5.98555 3.58382 5.96099C3.52197 5.93643 3.45565 5.92379 3.38867 5.92379C3.32169 5.92379 3.25537 5.93643 3.19352 5.96099C3.13166 5.98555 3.0755 6.02155 3.02825 6.06691C2.98078 6.11206 2.94311 6.16573 2.9174 6.22484C2.8917 6.28394 2.87847 6.34732 2.87847 6.41132C2.87847 6.47533 2.8917 6.5387 2.9174 6.59781C2.94311 6.65691 2.98078 6.71058 3.02825 6.75573L4.86081 8.50689L4.89055 8.53531C4.93525 8.57811 4.98834 8.61206 5.04679 8.63522C5.10523 8.65838 5.16788 8.6703 5.23115 8.6703C5.29442 8.6703 5.35707 8.65838 5.41552 8.63522C5.47396 8.61206 5.52705 8.57811 5.57175 8.53531L8.73697 5.51071C8.78175 5.46799 8.81728 5.41726 8.84152 5.36142C8.86576 5.30557 8.87823 5.2457 8.87823 5.18524C8.87823 5.12478 8.86576 5.06491 8.84152 5.00906C8.81728 4.95322 8.78175 4.90249 8.73697 4.85977L8.69731 4.82188C8.65262 4.77909 8.59953 4.74514 8.54108 4.72198C8.48264 4.69881 8.41999 4.68689 8.35672 4.68689C8.29344 4.68689 8.23079 4.69881 8.17235 4.72198C8.11391 4.74514 8.06082 4.77909 8.01612 4.82188L5.23044 7.48245L3.74909 6.06691Z" fill="white"/>
</svg>
