<svg width="14" height="13" viewBox="0 0 14 13" fill="none" xmlns="http://www.w3.org/2000/svg">
<path fill-rule="evenodd" clip-rule="evenodd" d="M2.93487 5.83531C2.21914 5.7371 1.56446 5.39561 1.09091 4.87346C0.617352 4.35131 0.356676 3.68353 0.356689 2.99258L0.356689 2.60967C0.356689 1.86989 0.985005 1.26948 1.75918 1.26948H2.84591C3.02863 0.821478 3.48384 0.503662 4.01759 0.503662H9.51856C9.77183 0.503797 10.0192 0.576967 10.2282 0.713602C10.4373 0.850237 10.5983 1.04398 10.6902 1.26948H11.777C12.5511 1.26948 13.1795 1.86989 13.1795 2.60967V2.99258C13.1795 3.68353 12.9188 4.35131 12.4452 4.87346C11.9717 5.39561 11.317 5.7371 10.6013 5.83531C10.4321 6.36217 10.1462 6.84806 9.76296 7.25995C9.37977 7.67184 8.90828 8.00008 8.38054 8.22237L8.49594 9.32975C8.49995 9.36804 8.51998 9.42164 8.5873 9.48597C8.65622 9.5526 8.76121 9.61616 8.88623 9.65981C9.11304 9.73869 9.38151 9.86965 9.5995 10.0948C9.8279 10.3322 9.97376 10.6485 9.97376 11.0337V11.6081H10.9755C11.135 11.6081 11.2878 11.6686 11.4006 11.7763C11.5133 11.884 11.5766 12.0301 11.5766 12.1824C11.5766 12.3348 11.5133 12.4809 11.4006 12.5886C11.2878 12.6963 11.135 12.7568 10.9755 12.7568H2.5606C2.40119 12.7568 2.24831 12.6963 2.13558 12.5886C2.02286 12.4809 1.95954 12.3348 1.95954 12.1824C1.95954 12.0301 2.02286 11.884 2.13558 11.7763C2.24831 11.6686 2.40119 11.6081 2.5606 11.6081H3.56238V11.0337C3.56238 10.6485 3.70824 10.3322 3.93745 10.0948C4.15383 9.86965 4.42311 9.73869 4.64991 9.65981C4.76141 9.62295 4.86335 9.56367 4.94884 9.48597C5.01616 9.42088 5.0362 9.3688 5.0402 9.32975L5.15561 8.22237C4.62801 7.99999 4.15668 7.67171 3.77363 7.25982C3.39058 6.84794 3.10479 6.3621 2.93567 5.83531H2.93487ZM2.76096 2.41821H1.75918C1.70604 2.41821 1.65508 2.43839 1.61751 2.47429C1.57993 2.51019 1.55882 2.55889 1.55882 2.60967V2.99258C1.55882 3.74308 2.06051 4.38101 2.76096 4.61765V2.41821ZM6.3329 8.5218L6.23673 9.44385C6.1622 10.1522 5.54911 10.5696 5.06104 10.7389C4.97112 10.7655 4.88885 10.8116 4.82061 10.8736C4.79096 10.9043 4.76451 10.9449 4.76451 11.0345V11.6088H8.77163V11.0345C8.77163 10.9449 8.74518 10.9043 8.71553 10.8736C8.64732 10.8116 8.56504 10.7655 8.4751 10.7389C7.98704 10.5696 7.37395 10.1522 7.30022 9.44462L7.20405 8.52257C6.91451 8.55251 6.62244 8.55251 6.3329 8.52257V8.5218ZM10.7752 4.61842V2.41821H11.777C11.8301 2.41821 11.8811 2.43839 11.9186 2.47429C11.9562 2.51019 11.9773 2.55889 11.9773 2.60967V2.99258C11.9774 3.34899 11.8619 3.69667 11.6466 3.98772C11.4313 4.27876 11.1268 4.49885 10.7752 4.61765V4.61842ZM3.96309 1.70447C3.96309 1.67613 3.98713 1.65239 4.01759 1.65239H9.51856C9.54821 1.65239 9.57305 1.67537 9.57305 1.70447V4.71568C9.57305 5.42655 9.27753 6.10832 8.75149 6.61099C8.22546 7.11365 7.512 7.39605 6.76807 7.39605C6.02415 7.39605 5.31069 7.11365 4.78465 6.61099C4.25862 6.10832 3.96309 5.42655 3.96309 4.71568V1.70447Z" fill="white"/>
<path d="M6.76809 2.34131L7.19993 3.61131H8.59737L7.46681 4.39622L7.89865 5.66623L6.76809 4.88132L5.63754 5.66623L6.06937 4.39622L4.93882 3.61131H6.33626L6.76809 2.34131Z" fill="white"/>
</svg>
