<svg width="9" height="10" viewBox="0 0 9 10" fill="none" xmlns="http://www.w3.org/2000/svg">
<path d="M6.53664 4.38837C6.87704 4.38837 7.20351 4.25314 7.44421 4.01244C7.68492 3.77173 7.82014 3.44527 7.82014 3.10486H8.67582C8.67587 3.38942 8.61916 3.67113 8.50899 3.93349C8.39882 4.19586 8.23741 4.43361 8.03421 4.63282C7.83102 4.83203 7.59012 4.9887 7.32563 5.09365C7.06113 5.1986 6.77835 5.24973 6.49385 5.24404C6.41001 5.65514 6.20713 6.03252 5.91045 6.32919C5.61377 6.62587 5.2364 6.82876 4.82529 6.9126V7.81106L6.96447 8.66673V9.09456H1.83044V8.66673L3.96962 7.81106V6.9126C3.55852 6.82876 3.18114 6.62587 2.88446 6.32919C2.58779 6.03252 2.3849 5.65514 2.30106 5.24404H2.25828C1.69093 5.24404 1.14682 5.01866 0.745646 4.61749C0.344472 4.21631 0.119095 3.6722 0.119095 3.10486H0.974767C0.974767 3.44527 1.10999 3.77173 1.3507 4.01244C1.5914 4.25314 1.91787 4.38837 2.25828 4.38837V2.24919H0.974767V3.10486H0.119095V1.39351H2.25828V0.537842H6.53664V1.39351H8.67582V3.10486H7.82014V2.24919H6.53664V4.38837Z" fill="#FFFAEF"/>
</svg>
